<svg xmlns="http://www.w3.org/2000/svg" xmlns:xlink="http://www.w3.org/1999/xlink" width="115" height="115" viewBox="0 0 115 115">
  <defs>
    <clipPath id="clip-path">
      <rect id="Rectángulo_411071" data-name="Rectángulo 411071" width="115" height="115" transform="translate(800.781 1954)" fill="#e8bad8" opacity="0.41"/>
    </clipPath>
  </defs>
  <g id="Grupo_1206771" data-name="Grupo 1206771" transform="translate(6116 8352)">
    <g id="Enmascarar_grupo_1099384" data-name="Enmascarar grupo 1099384" transform="translate(-6916.781 -10306)" clip-path="url(#clip-path)">
      <g id="Grupo_1203953" data-name="Grupo 1203953" transform="translate(799.781 1960.273)">
        <g id="Grupo_1203952" data-name="Grupo 1203952">
          <ellipse id="Elipse_12745" data-name="Elipse 12745" cx="28.658" cy="28.658" rx="28.658" ry="28.658" transform="translate(56.527 44.289)" fill="#7fe5cf"/>
          <ellipse id="Elipse_12746" data-name="Elipse 12746" cx="20.842" cy="20.842" rx="20.842" ry="20.842" fill="#7fe5cf"/>
        </g>
      </g>
    </g>
    <g id="luz" transform="translate(-6100.005 -8335)">
      <path id="Trazado_1251567" data-name="Trazado 1251567" d="M88.7,49.383l-5.029,3a8.576,8.576,0,0,0-3.09,11.543l2.855,5.116-5.849.08a8.577,8.577,0,0,0-8.456,8.457l-.08,5.849-5.118-2.857A8.576,8.576,0,0,0,52.39,83.667l-3,5.029-3-5.029A8.576,8.576,0,0,0,34.84,80.575l-5.118,2.857-.08-5.849a8.576,8.576,0,0,0-8.456-8.457l-5.849-.08,2.855-5.116A8.576,8.576,0,0,0,15.1,52.386l-5.029-3,5.029-3a8.574,8.574,0,0,0,3.09-11.541l-2.855-5.118,5.849-.08a8.575,8.575,0,0,0,8.456-8.458l.08-5.848,5.118,2.857A8.574,8.574,0,0,0,46.381,15.1l3-5.031,3,5.031a8.574,8.574,0,0,0,11.541,3.09l5.118-2.855.08,5.847a8.576,8.576,0,0,0,8.456,8.458l5.849.08-2.855,5.118a8.574,8.574,0,0,0,3.09,11.541Zm-16.55,8.588A24.33,24.33,0,1,0,40.8,72.145,24.33,24.33,0,0,0,72.149,57.971Z" transform="translate(-8.458 -8.459)" fill="#ff8749"/>
      <path id="Trazado_1251568" data-name="Trazado 1251568" d="M136.686,105.34a24.329,24.329,0,1,1-31.352,14.176A24.33,24.33,0,0,1,136.686,105.34Z" transform="translate(-87.171 -87.179)" fill="#ffc365"/>
      <path id="Trazado_1251569" data-name="Trazado 1251569" d="M128.758,95.337a25.939,25.939,0,1,0,15.113,33.426h0A25.97,25.97,0,0,0,128.758,95.337Zm12.1,32.289a22.75,22.75,0,1,1-13.239-29.278A22.746,22.746,0,0,1,140.859,127.627Z" transform="translate(-78.674 -78.682)"/>
      <path id="Trazado_1251570" data-name="Trazado 1251570" d="M336.688,178.112a1.609,1.609,0,0,0-.315,2.254,16.535,16.535,0,0,1,3.133,12.474,1.609,1.609,0,1,0,3.179.5,19.771,19.771,0,0,0-3.744-14.916A1.609,1.609,0,0,0,336.688,178.112Z" transform="translate(-282.324 -149.366)"/>
      <path id="Trazado_1251571" data-name="Trazado 1251571" d="M81.067,39.543l-5.029-3a6.931,6.931,0,0,1-2.51-9.376l2.855-5.118A1.61,1.61,0,0,0,75,19.651l-5.849-.08A6.931,6.931,0,0,1,62.281,12.7L62.2,6.853A1.61,1.61,0,0,0,59.807,5.47L54.689,8.325a6.931,6.931,0,0,1-9.375-2.51l-3-5.031a1.609,1.609,0,0,0-2.763,0l-3,5.031a6.932,6.932,0,0,1-9.375,2.51L22.048,5.469a1.61,1.61,0,0,0-2.394,1.383l-.08,5.849a6.929,6.929,0,0,1-6.869,6.87l-5.849.08a1.61,1.61,0,0,0-1.383,2.393l2.855,5.119a6.931,6.931,0,0,1-2.51,9.375l-5.029,3a1.609,1.609,0,0,0,0,2.763l5.029,3a6.933,6.933,0,0,1,2.51,9.377L5.474,59.8A1.61,1.61,0,0,0,6.857,62.2l5.849.08a6.929,6.929,0,0,1,6.869,6.871L19.655,75a1.609,1.609,0,0,0,2.394,1.383l5.118-2.857a6.934,6.934,0,0,1,9.375,2.512l3,5.029a1.609,1.609,0,0,0,2.763,0l3-5.029a6.933,6.933,0,0,1,9.375-2.512l5.118,2.857A1.609,1.609,0,0,0,62.2,75l.08-5.849a6.931,6.931,0,0,1,6.869-6.871L75,62.2A1.609,1.609,0,0,0,76.383,59.8l-2.855-5.117a6.933,6.933,0,0,1,2.51-9.376l5.029-3a1.609,1.609,0,0,0,0-2.763Zm-6.68,3a10.185,10.185,0,0,0-3.67,13.709l1.54,2.76-3.151.043A10.186,10.186,0,0,0,59.063,69.1l-.043,3.15-2.761-1.542a10.186,10.186,0,0,0-13.707,3.672L40.928,77.1,39.3,74.383A10.176,10.176,0,0,0,25.6,70.711l-2.761,1.541-.043-3.15A10.186,10.186,0,0,0,12.749,59.058L9.6,59.014l1.54-2.76a10.186,10.186,0,0,0-3.67-13.709L4.753,40.924,7.469,39.3a10.184,10.184,0,0,0,3.67-13.707L9.6,22.833l3.151-.043A10.184,10.184,0,0,0,22.792,12.744l.043-3.15L25.6,11.135A10.184,10.184,0,0,0,39.3,7.465l1.623-2.718,1.623,2.718a10.184,10.184,0,0,0,13.707,3.67L59.019,9.6l.043,3.149A10.186,10.186,0,0,0,69.106,22.789l3.151.043-1.54,2.761A10.183,10.183,0,0,0,74.386,39.3L77.1,40.923Z" transform="translate(0 0)"/>
      <circle id="Elipse_12796" data-name="Elipse 12796" cx="1.609" cy="1.609" r="1.609" transform="translate(49.38 24.666)"/>
    </g>
  </g>
</svg>
