<svg xmlns="http://www.w3.org/2000/svg" xmlns:xlink="http://www.w3.org/1999/xlink" width="115" height="115" viewBox="0 0 115 115">
  <defs>
    <clipPath id="clip-path">
      <rect id="Rectángulo_411073" data-name="Rectángulo 411073" width="115" height="115" transform="translate(800.781 1954)" fill="#e8bad8" opacity="0.41"/>
    </clipPath>
  </defs>
  <g id="Grupo_1206780" data-name="Grupo 1206780" transform="translate(5767 8352)">
    <g id="Enmascarar_grupo_1099385" data-name="Enmascarar grupo 1099385" transform="translate(-6567.781 -10306)" clip-path="url(#clip-path)">
      <g id="Grupo_1203955" data-name="Grupo 1203955" transform="translate(799.781 1960.273)">
        <g id="Grupo_1203954" data-name="Grupo 1203954">
          <ellipse id="Elipse_12747" data-name="Elipse 12747" cx="28.658" cy="28.658" rx="28.658" ry="28.658" transform="translate(56.527 44.289)" fill="#7fe5cf"/>
          <ellipse id="Elipse_12748" data-name="Elipse 12748" cx="20.842" cy="20.842" rx="20.842" ry="20.842" fill="#7fe5cf"/>
        </g>
      </g>
    </g>
    <g id="tierra" transform="translate(-5752 -8348.572)">
      <g id="Grupo_1206775" data-name="Grupo 1206775" transform="translate(1.36 14.813)">
        <path id="Trazado_1251572" data-name="Trazado 1251572" d="M90.42,393.122H8.224V377.336l41.1-3.738,41.1,3.738Z" transform="translate(-8.224 -315.295)" fill="#d98f61"/>
        <path id="Trazado_1251573" data-name="Trazado 1251573" d="M51.8,373.824l-2.481-.226-41.1,3.738v15.786h4.962V377.336Z" transform="translate(-8.224 -315.295)" fill="#d37f50"/>
        <path id="Trazado_1251574" data-name="Trazado 1251574" d="M90.42,201.693l-41.1,3.806-41.1-3.806v-5.137h82.2Z" transform="translate(-8.224 -167.533)" fill="#b2e59f"/>
        <path id="Trazado_1251575" data-name="Trazado 1251575" d="M13.186,201.693v-5.137H8.224v5.137l41.1,3.805,2.481-.23Z" transform="translate(-8.224 -167.533)" fill="#95d6a4"/>
        <path id="Trazado_1251576" data-name="Trazado 1251576" d="M8.224,274.7V254.145l4.191-2.569,36.907-.948,37.04.948,4.058,2.569V274.7Z" transform="translate(-8.224 -212.663)" fill="#bd6629"/>
        <path id="Trazado_1251577" data-name="Trazado 1251577" d="M17.377,255.59l-4.962.127-4.191,2.569v20.559h4.962V258.287Z" transform="translate(-8.224 -216.804)" fill="#a45924"/>
        <path id="Trazado_1251578" data-name="Trazado 1251578" d="M8.224,234.942c3.99.038,4.03,1.984,8.1,1.984,4.11,0,4.11-1.985,8.22-1.985s4.11,1.985,8.219,1.985,4.11-1.985,8.22-1.985,4.11,1.985,8.219,1.985,4.11-1.985,8.219-1.985,4.11,1.985,8.22,1.985,4.11-1.985,8.219-1.985,4.11,1.985,8.221,1.985,4.11-1.985,8.221-1.985h.12v-7.322H8.224Z" transform="translate(-8.224 -193.459)" fill="#d98f61"/>
        <circle id="Elipse_12797" data-name="Elipse 12797" cx="2.569" cy="2.569" r="2.569" transform="translate(12.843 67.552)" fill="#f3cbb1"/>
        <circle id="Elipse_12798" data-name="Elipse 12798" cx="2.569" cy="2.569" r="2.569" transform="translate(51.373 67.552)" fill="#f3cbb1"/>
        <g id="Grupo_1206774" data-name="Grupo 1206774" transform="translate(8.217 0)">
          <g id="Grupo_1206772" data-name="Grupo 1206772" transform="translate(35.45)">
            <path id="Trazado_1251579" data-name="Trazado 1251579" d="M284.181,40.546c-5.2,1.4-10.144-.191-11.583-5.344-1.464-5.246,1.906-10.34,7.046-12.14,12.867-4.506,21.8.05,21.8.05C294.344,25.02,293.57,38.021,284.181,40.546Z" transform="translate(-272.254 -21.073)" fill="#95d6a4"/>
          </g>
          <path id="Trazado_1251580" data-name="Trazado 1251580" d="M277.56,35.2c-1.465-5.246,1.906-10.34,7.046-12.14a34.9,34.9,0,0,1,8.8-1.89,33.308,33.308,0,0,0-13.763,1.89c-5.14,1.8-8.51,6.894-7.046,12.14,1.355,4.852,5.821,6.542,10.675,5.557A7.515,7.515,0,0,1,277.56,35.2Z" transform="translate(-236.804 -21.074)" fill="#85c691"/>
          <g id="Grupo_1206773" data-name="Grupo 1206773" transform="translate(0 3.503)">
            <path id="Trazado_1251581" data-name="Trazado 1251581" d="M75.1,61.755c5.189,1.418,10.145-.15,11.6-5.3,1.486-5.24-1.863-10.347-7-12.168-12.848-4.558-21.8-.039-21.8-.039C65,46.188,65.718,59.192,75.1,61.755Z" transform="translate(-57.908 -42.254)" fill="#95d6a4"/>
          </g>
          <path id="Trazado_1251582" data-name="Trazado 1251582" d="M80.059,61.759c-7.677-2.1-9.553-11.192-13.869-15.485a2.022,2.022,0,0,1,1.032-3.4,28.4,28.4,0,0,1,3.564-.516c-7.882-.624-12.876,1.9-12.876,1.9C65,46.192,65.718,59.2,75.1,61.759a12.018,12.018,0,0,0,5.915.227Q80.537,61.889,80.059,61.759Z" transform="translate(-57.908 -38.755)" fill="#85c691"/>
        </g>
      </g>
      <g id="Grupo_1206779" data-name="Grupo 1206779" transform="translate(0 13.573)">
        <path id="Trazado_1251583" data-name="Trazado 1251583" d="M84.161,196.674H71.575a1.24,1.24,0,1,1,0-2.481H82.92v-2.656H3.2v2.656H66.169a1.24,1.24,0,1,1,0,2.481H1.964a1.24,1.24,0,0,1-1.24-1.24V190.3a1.24,1.24,0,0,1,1.24-1.24h82.2a1.24,1.24,0,0,1,1.24,1.24v5.137A1.24,1.24,0,0,1,84.161,196.674Z" transform="translate(-0.604 -160.033)"/>
        <path id="Línea_564" data-name="Línea 564" d="M-6.26,22.865a1.24,1.24,0,0,1-1.24-1.24V-6.26A1.24,1.24,0,0,1-6.26-7.5a1.24,1.24,0,0,1,1.24,1.24V21.625A1.24,1.24,0,0,1-6.26,22.865Z" transform="translate(89.816 41.656)"/>
        <path id="Línea_565" data-name="Línea 565" d="M-6.26,22.865a1.24,1.24,0,0,1-1.24-1.24V-6.26A1.24,1.24,0,0,1-6.26-7.5a1.24,1.24,0,0,1,1.24,1.24V21.625A1.24,1.24,0,0,1-6.26,22.865Z" transform="translate(7.62 41.656)"/>
        <path id="Trazado_1251584" data-name="Trazado 1251584" d="M75.216,268.856a9.385,9.385,0,0,1-4.65-1.116,7.771,7.771,0,0,0-7.141,0,10.244,10.244,0,0,1-9.3,0,7.77,7.77,0,0,0-7.141,0,10.244,10.244,0,0,1-9.3,0,6.987,6.987,0,0,0-3.57-.869,6.987,6.987,0,0,0-3.57.869,9.383,9.383,0,0,1-4.649,1.116,9.382,9.382,0,0,1-4.649-1.116,6.987,6.987,0,0,0-3.57-.869,6.988,6.988,0,0,0-3.57.869,9.383,9.383,0,0,1-4.649,1.116,9.383,9.383,0,0,1-4.649-1.116,6.987,6.987,0,0,0-3.57-.869,1.24,1.24,0,0,1,0-2.481,9.383,9.383,0,0,1,4.649,1.116,6.987,6.987,0,0,0,3.57.869,6.987,6.987,0,0,0,3.57-.869,9.383,9.383,0,0,1,4.649-1.116,9.383,9.383,0,0,1,4.649,1.116,6.987,6.987,0,0,0,3.57.869,6.988,6.988,0,0,0,3.57-.869,9.383,9.383,0,0,1,4.649-1.116,9.382,9.382,0,0,1,4.649,1.116,7.77,7.77,0,0,0,7.141,0,10.244,10.244,0,0,1,9.3,0,7.77,7.77,0,0,0,7.141,0,10.245,10.245,0,0,1,9.3,0,7.772,7.772,0,0,0,7.142,0,9.385,9.385,0,0,1,4.65-1.116,1.24,1.24,0,1,1,0,2.481,6.99,6.99,0,0,0-3.571.869A9.385,9.385,0,0,1,75.216,268.856Z" transform="translate(0 -222.909)"/>
        <path id="Trazado_1251585" data-name="Trazado 1251585" d="M84.161,408.854H1.964a1.24,1.24,0,0,1-1.24-1.24V392.2a1.24,1.24,0,0,1,1.24-1.24H19.811a1.24,1.24,0,1,1,0,2.481H3.2v12.931H82.92V393.442h-57.7a1.24,1.24,0,1,1,0-2.481H84.161a1.24,1.24,0,0,1,1.24,1.24v15.412A1.24,1.24,0,0,1,84.161,408.854Z" transform="translate(-0.604 -328.546)"/>
        <path id="Línea_566" data-name="Línea 566" transform="translate(6.498 73.93)"/>
        <path id="Elipse_12799" data-name="Elipse 12799" d="M-3.691-7.5A3.813,3.813,0,0,1,.118-3.691,3.813,3.813,0,0,1-3.691.118,3.813,3.813,0,0,1-7.5-3.691,3.813,3.813,0,0,1-3.691-7.5Zm0,5.137A1.33,1.33,0,0,0-2.363-3.691,1.33,1.33,0,0,0-3.691-5.019,1.33,1.33,0,0,0-5.019-3.691,1.33,1.33,0,0,0-3.691-2.363Z" transform="translate(20.463 75.052)"/>
        <path id="Elipse_12800" data-name="Elipse 12800" d="M-3.691-7.5A3.813,3.813,0,0,1,.118-3.691,3.813,3.813,0,0,1-3.691.118,3.813,3.813,0,0,1-7.5-3.691,3.813,3.813,0,0,1-3.691-7.5Zm0,5.137A1.33,1.33,0,0,0-2.363-3.691,1.33,1.33,0,0,0-3.691-5.019,1.33,1.33,0,0,0-5.019-3.691,1.33,1.33,0,0,0-3.691-2.363Z" transform="translate(58.993 75.052)"/>
        <path id="Línea_567" data-name="Línea 567" transform="translate(29.615 68.793)"/>
        <path id="Línea_568" data-name="Línea 568" transform="translate(42.458 72.333)"/>
        <path id="Línea_569" data-name="Línea 569" transform="translate(68.145 73.93)"/>
        <path id="Línea_570" data-name="Línea 570" transform="translate(78.419 70.237)"/>
        <g id="Grupo_1206778" data-name="Grupo 1206778" transform="translate(8.337 0)">
          <g id="Grupo_1206776" data-name="Grupo 1206776" transform="translate(32.852)">
            <path id="Trazado_1251586" data-name="Trazado 1251586" d="M274.438,36.01c-4.639,0-8.111-2.517-9.288-6.734-1.581-5.661,1.786-11.527,7.831-13.644a35.406,35.406,0,0,1,11.709-2.059,26.041,26.041,0,0,1,11.062,2.175,1.24,1.24,0,0,1-.242,2.3c-2.81.756-4.545,3.706-6.554,7.121-2.434,4.139-5.193,8.83-10.706,10.312A14.719,14.719,0,0,1,274.438,36.01ZM284.69,16.053a32.934,32.934,0,0,0-10.889,1.92c-4.794,1.679-7.485,6.251-6.261,10.635,1.2,4.281,4.835,4.92,6.9,4.92a12.241,12.241,0,0,0,3.168-.441c4.533-1.219,6.911-5.263,9.212-9.174,1.58-2.687,3.1-5.266,5.244-6.877A27.271,27.271,0,0,0,284.69,16.053Z" transform="translate(-262.162 -13.573)"/>
            <path id="Trazado_1251587" data-name="Trazado 1251587" d="M250.284,114.9a1.24,1.24,0,0,1-1.24-1.24V92.235c0-14.1,5.551-22.841,16.052-25.282a1.24,1.24,0,1,1,.562,2.416c-11.681,2.715-14.133,13.933-14.133,22.866v21.428A1.24,1.24,0,0,1,250.284,114.9Z" transform="translate(-249.044 -58.097)"/>
          </g>
          <g id="Grupo_1206777" data-name="Grupo 1206777" transform="translate(0 3.503)">
            <path id="Trazado_1251588" data-name="Trazado 1251588" d="M72.366,57.235a14.653,14.653,0,0,1-3.857-.544c-5.507-1.5-8.246-6.207-10.664-10.356-1.995-3.424-3.718-6.381-6.525-7.148a1.24,1.24,0,0,1-.232-2.3c.2-.1,5.1-2.523,12.829-2.075a1.24,1.24,0,0,1-.143,2.477,27.824,27.824,0,0,0-9,.9c2.14,1.62,3.646,4.2,5.215,6.9,2.284,3.921,4.646,7.975,9.174,9.212,3.779,1.033,8.687.49,10.085-4.438C80.49,45.48,77.817,40.9,73.03,39.2a35.555,35.555,0,0,0-4.052-1.175,1.24,1.24,0,1,1,.546-2.42,38.043,38.043,0,0,1,4.335,1.257C79.9,39,83.238,44.881,81.634,50.536,80.426,54.8,76.9,57.235,72.366,57.235Z" transform="translate(-50.407 -34.753)"/>
          </g>
        </g>
        <path id="Trazado_1251589" data-name="Trazado 1251589" d="M172.148,104.982a1.238,1.238,0,0,1-.993-.5A25.208,25.208,0,0,0,160.8,96.4l-5.777-2.439a1.24,1.24,0,1,1,.965-2.286l5.777,2.439A27.692,27.692,0,0,1,173.14,103a1.24,1.24,0,0,1-.991,1.985Z" transform="translate(-128.753 -78.673)"/>
        <path id="Trazado_1251590" data-name="Trazado 1251590" d="M179.966,320.394a1.241,1.241,0,0,1-1.111-1.79l2.684-5.431a1.24,1.24,0,0,1,.739-.633l8.815-2.781a1.24,1.24,0,0,1,.746,2.366l-8.311,2.622-2.449,4.957A1.241,1.241,0,0,1,179.966,320.394Z" transform="translate(-149.167 -260.725)"/>
        <path id="Línea_571" data-name="Línea 571" d="M-1.01-2.148A1.235,1.235,0,0,1-1.6-2.3L-6.856-5.173a1.24,1.24,0,0,1-.493-1.683,1.24,1.24,0,0,1,1.683-.493L-.414-4.477A1.24,1.24,0,0,1,.079-2.793,1.24,1.24,0,0,1-1.01-2.148Z" transform="translate(34.493 56.385)"/>
        <path id="Trazado_1251591" data-name="Trazado 1251591" d="M261.961,320.394a1.24,1.24,0,0,1-1.113-.691l-2.45-4.957-8.311-2.622a1.24,1.24,0,0,1,.746-2.366l8.815,2.781a1.24,1.24,0,0,1,.739.633l2.684,5.431a1.241,1.241,0,0,1-1.111,1.79Z" transform="translate(-208.002 -260.725)"/>
        <path id="Línea_572" data-name="Línea 572" d="M-6.26-2.148a1.24,1.24,0,0,1-1.089-.645,1.24,1.24,0,0,1,.493-1.683L-1.6-7.349a1.24,1.24,0,0,1,1.683.493A1.24,1.24,0,0,1-.414-5.173L-5.666-2.3A1.235,1.235,0,0,1-6.26-2.148Z" transform="translate(57.535 56.385)"/>
      </g>
    </g>
  </g>
</svg>
