<svg xmlns="http://www.w3.org/2000/svg" xmlns:xlink="http://www.w3.org/1999/xlink" width="115" height="115" viewBox="0 0 115 115">
  <defs>
    <clipPath id="clip-path">
      <rect id="Rectángulo_411065" data-name="Rectángulo 411065" width="115" height="115" transform="translate(800.781 1954)" fill="#e8bad8" opacity="0.41"/>
    </clipPath>
    <clipPath id="clip-path-2">
      <path id="path9258" d="M0-682.665H85.911v85.911H0Z" transform="translate(0 682.665)"/>
    </clipPath>
  </defs>
  <g id="Grupo_1206762" data-name="Grupo 1206762" transform="translate(-1112.05 -3256)">
    <g id="Enmascarar_grupo_1099381" data-name="Enmascarar grupo 1099381" transform="translate(311.27 1302)" clip-path="url(#clip-path)">
      <g id="Grupo_1203947" data-name="Grupo 1203947" transform="translate(799.781 1960.273)">
        <g id="Grupo_1203946" data-name="Grupo 1203946">
          <ellipse id="Elipse_12739" data-name="Elipse 12739" cx="28.658" cy="28.658" rx="28.658" ry="28.658" transform="translate(56.527 44.289)" fill="#7fe5cf"/>
          <ellipse id="Elipse_12740" data-name="Elipse 12740" cx="20.842" cy="20.842" rx="20.842" ry="20.842" fill="#7fe5cf"/>
        </g>
      </g>
    </g>
    <g id="g9252" transform="translate(1126.051 3953.665)">
      <g id="g9254" transform="translate(0 -682.665)">
        <g id="g9256" transform="translate(0 0)" clip-path="url(#clip-path-2)">
          <g id="g9262" transform="translate(40.175 1.258)">
            <path id="path9264" d="M0-57.927a2.78,2.78,0,0,0,2.78,2.78,2.78,2.78,0,0,0,2.78-2.78v-5.56a2.78,2.78,0,0,0-2.78-2.78A2.78,2.78,0,0,0,0-63.487Z" transform="translate(0 66.267)" fill="#ffd900"/>
          </g>
          <g id="g9266" transform="translate(40.175 73.533)">
            <path id="path9268" d="M0-57.927a2.78,2.78,0,0,0,2.78,2.78,2.78,2.78,0,0,0,2.78-2.78v-5.56a2.78,2.78,0,0,0-2.78-2.78A2.78,2.78,0,0,0,0-63.487Z" transform="translate(0 66.267)" fill="#ffd900"/>
          </g>
          <g id="g9270" transform="translate(73.533 40.176)">
            <path id="path9272" d="M-19.308,0a2.78,2.78,0,0,0-2.78,2.78,2.78,2.78,0,0,0,2.78,2.78h5.56a2.78,2.78,0,0,0,2.78-2.78A2.78,2.78,0,0,0-13.749,0Z" transform="translate(22.088)" fill="#ffd900"/>
          </g>
          <g id="g9274" transform="translate(1.258 40.176)">
            <path id="path9276" d="M-19.309,0a2.78,2.78,0,0,0-2.78,2.78,2.78,2.78,0,0,0,2.78,2.78h5.56a2.78,2.78,0,0,0,2.78-2.78A2.78,2.78,0,0,0-13.75,0Z" transform="translate(22.089)" fill="#ffd900"/>
          </g>
          <g id="g9278" transform="translate(17.937 17.937)">
            <path id="path9280" d="M-347.563-173.781a25.018,25.018,0,0,1-25.018,25.018A25.018,25.018,0,0,1-397.6-173.781,25.018,25.018,0,0,1-372.581-198.8a25.018,25.018,0,0,1,25.018,25.018" transform="translate(397.599 198.8)" fill="#ffd900"/>
          </g>
          <g id="g9282" transform="translate(63.763 12.657)">
            <path id="path9284" d="M-5.656-32.962a2.78,2.78,0,0,0,0,3.931,2.78,2.78,0,0,0,3.931,0l3.931-3.931a2.78,2.78,0,0,0,0-3.931,2.78,2.78,0,0,0-3.931,0Z" transform="translate(6.47 37.708)" fill="#ffd900"/>
          </g>
          <g id="g9286" transform="translate(12.657 63.763)">
            <path id="path9288" d="M-5.656-32.962a2.78,2.78,0,0,0,0,3.931,2.78,2.78,0,0,0,3.931,0l3.931-3.931a2.78,2.78,0,0,0,0-3.931,2.78,2.78,0,0,0-3.931,0Z" transform="translate(6.47 37.708)" fill="#ffd900"/>
          </g>
          <g id="g9290" transform="translate(63.763 63.763)">
            <path id="path9292" d="M-32.962-5.656a2.78,2.78,0,0,0-3.931,0,2.78,2.78,0,0,0,0,3.931l3.931,3.931a2.78,2.78,0,0,0,3.931,0,2.78,2.78,0,0,0,0-3.931Z" transform="translate(37.708 6.47)" fill="#ffd900"/>
          </g>
          <g id="g9294" transform="translate(12.657 12.657)">
            <path id="path9296" d="M-32.962-5.656a2.78,2.78,0,0,0-3.931,0,2.78,2.78,0,0,0,0,3.931l3.931,3.931a2.78,2.78,0,0,0,3.931,0,2.78,2.78,0,0,0,0-3.931Z" transform="translate(37.708 6.47)" fill="#ffd900"/>
          </g>
          <g id="g9298" transform="translate(41.026 17.937)">
            <path id="path9300" d="M-13.4,0q-.974,0-1.93.073A25.02,25.02,0,0,1,7.755,25.018,25.02,25.02,0,0,1-15.333,49.963q.955.073,1.93.073A25.018,25.018,0,0,0,11.614,25.018,25.018,25.018,0,0,0-13.4,0" transform="translate(15.333)" fill="#fb0"/>
          </g>
          <g id="g9302" transform="translate(5.739 40.176)">
            <path id="path9304" d="M-26.807,0h-3.859a2.78,2.78,0,0,1,2.78,2.78,2.78,2.78,0,0,1-2.78,2.78h3.859a2.78,2.78,0,0,0,2.78-2.78A2.78,2.78,0,0,0-26.807,0" transform="translate(30.667)" fill="#fb0"/>
          </g>
          <g id="g9306" transform="translate(78.013 40.176)">
            <path id="path9308" d="M-26.807,0h-3.859a2.78,2.78,0,0,1,2.78,2.78,2.78,2.78,0,0,1-2.78,2.78h3.859a2.78,2.78,0,0,0,2.78-2.78A2.78,2.78,0,0,0-26.807,0" transform="translate(30.667)" fill="#fb0"/>
          </g>
          <g id="g9310" transform="translate(41.026 1.258)">
            <path id="path9312" d="M-13.4,0a2.768,2.768,0,0,0-1.93.781,2.77,2.77,0,0,1,.85,2v5.56a2.769,2.769,0,0,1-.85,2,2.768,2.768,0,0,0,1.93.782,2.78,2.78,0,0,0,2.78-2.78V2.78A2.78,2.78,0,0,0-13.4,0" transform="translate(15.333)" fill="#fb0"/>
          </g>
          <g id="g9314" transform="translate(41.026 73.533)">
            <path id="path9316" d="M-13.4,0a2.768,2.768,0,0,0-1.93.781,2.77,2.77,0,0,1,.85,2v5.56a2.769,2.769,0,0,1-.85,2,2.768,2.768,0,0,0,1.93.782,2.78,2.78,0,0,0,2.78-2.78V2.78A2.78,2.78,0,0,0-13.4,0" transform="translate(15.333)" fill="#fb0"/>
          </g>
          <g id="g9318" transform="translate(64.613 12.658)">
            <path id="path9320" d="M-54.364-5.649a2.778,2.778,0,0,0-3.9-.033c.012.011.024.021.036.033a2.78,2.78,0,0,1,0,3.931l-3.931,3.931c-.011.012-.024.021-.036.033a2.778,2.778,0,0,0,3.9-.033l3.931-3.931a2.78,2.78,0,0,0,0-3.931" transform="translate(62.191 6.462)" fill="#fb0"/>
          </g>
          <g id="g9322" transform="translate(64.613 63.764)">
            <path id="path9324" d="M-54.364-32.956-58.3-36.888a2.778,2.778,0,0,0-3.9-.032c.012.011.024.021.036.032l3.931,3.931a2.78,2.78,0,0,1,0,3.931c-.011.012-.024.021-.036.033a2.778,2.778,0,0,0,3.9-.033,2.78,2.78,0,0,0,0-3.931" transform="translate(62.191 37.701)" fill="#fb0"/>
          </g>
          <g id="g9326" transform="translate(13.511 12.658)">
            <path id="path9328" d="M-54.335-32.956l-3.931-3.931a2.778,2.778,0,0,0-3.891-.036c.013.013.027.023.04.036l3.931,3.931a2.78,2.78,0,0,1,0,3.931c-.013.013-.027.023-.04.036a2.778,2.778,0,0,0,3.891-.036,2.78,2.78,0,0,0,0-3.931" transform="translate(62.157 37.701)" fill="#fb0"/>
          </g>
          <g id="g9330" transform="translate(13.511 63.764)">
            <path id="path9332" d="M-54.335-5.649a2.778,2.778,0,0,0-3.891-.036c.013.012.027.023.04.036a2.78,2.78,0,0,1,0,3.931l-3.931,3.931c-.013.013-.027.024-.04.036a2.778,2.778,0,0,0,3.891-.036l3.931-3.931a2.78,2.78,0,0,0,0-3.931" transform="translate(62.157 6.462)" fill="#fb0"/>
          </g>
          <g id="g9334" transform="translate(38.917 0)">
            <path id="path9336" d="M-5.962-62.63A4.043,4.043,0,0,1-10-66.669v-5.56a4.043,4.043,0,0,1,4.038-4.038,4.043,4.043,0,0,1,4.038,4.038v5.56A4.043,4.043,0,0,1-5.962-62.63Zm0-11.119a1.523,1.523,0,0,0-1.521,1.521v5.56a1.523,1.523,0,0,0,1.521,1.521A1.523,1.523,0,0,0-4.44-66.669v-5.56A1.523,1.523,0,0,0-5.962-73.75Z" transform="translate(10 76.266)"/>
          </g>
          <g id="g9338" transform="translate(38.917 72.275)">
            <path id="path9340" d="M-5.962-62.63A4.043,4.043,0,0,1-10-66.669v-5.56a4.043,4.043,0,0,1,4.038-4.038,4.043,4.043,0,0,1,4.038,4.038v5.56A4.043,4.043,0,0,1-5.962-62.63Zm0-11.119a1.523,1.523,0,0,0-1.521,1.521v5.56a1.523,1.523,0,0,0,1.521,1.521A1.523,1.523,0,0,0-4.44-66.669v-5.56A1.523,1.523,0,0,0-5.962-73.75Z" transform="translate(10 76.266)"/>
          </g>
          <g id="g9342" transform="translate(72.275 38.917)">
            <path id="path9344" d="M-28.05-10h5.56a4.043,4.043,0,0,1,4.038,4.038A4.043,4.043,0,0,1-22.49-1.924h-5.56a4.043,4.043,0,0,1-4.038-4.038A4.043,4.043,0,0,1-28.05-10Zm5.56,5.56a1.523,1.523,0,0,0,1.521-1.521A1.523,1.523,0,0,0-22.49-7.483h-5.56a1.523,1.523,0,0,0-1.521,1.521A1.523,1.523,0,0,0-28.05-4.44Z" transform="translate(32.088 10)"/>
          </g>
          <g id="g9346" transform="translate(0 38.917)">
            <path id="path9348" d="M-28.051-10h5.56a4.043,4.043,0,0,1,4.038,4.038,4.043,4.043,0,0,1-4.038,4.038h-5.56a4.043,4.043,0,0,1-4.038-4.038A4.043,4.043,0,0,1-28.051-10Zm5.56,5.56A1.523,1.523,0,0,0-20.97-5.962a1.523,1.523,0,0,0-1.521-1.521h-5.56a1.523,1.523,0,0,0-1.521,1.521A1.523,1.523,0,0,0-28.051-4.44Z" transform="translate(32.089 10)"/>
          </g>
          <g id="g9350" transform="translate(16.679 16.679)">
            <path id="path9352" d="M-56.069-2.843A26.306,26.306,0,0,1-82.345-29.119a26.335,26.335,0,0,1,5.861-16.544,1.258,1.258,0,0,1,1.77-.184,1.258,1.258,0,0,1,.184,1.77,23.81,23.81,0,0,0-5.3,14.958A23.786,23.786,0,0,0-56.069-5.36a23.787,23.787,0,0,0,23.76-23.76,23.787,23.787,0,0,0-23.76-23.76,23.794,23.794,0,0,0-15.113,5.425,1.258,1.258,0,0,1-1.772-.17,1.258,1.258,0,0,1,.17-1.772,26.316,26.316,0,0,1,16.715-6A26.306,26.306,0,0,1-29.792-29.119,26.306,26.306,0,0,1-56.069-2.843Z" transform="translate(82.345 55.396)"/>
          </g>
          <g id="g9354" transform="translate(62.506 11.399)">
            <path id="path9356" d="M-8.487-47.708a4.012,4.012,0,0,1,2.855,1.183,4.043,4.043,0,0,1,0,5.711l-3.931,3.931A4.012,4.012,0,0,1-12.418-35.7a4.012,4.012,0,0,1-2.855-1.183,4.043,4.043,0,0,1,0-5.711l3.931-3.931A4.012,4.012,0,0,1-8.487-47.708Zm-3.931,9.491a1.512,1.512,0,0,0,1.076-.446l3.931-3.931a1.523,1.523,0,0,0,0-2.152,1.511,1.511,0,0,0-1.076-.445,1.511,1.511,0,0,0-1.076.445l-3.931,3.931a1.511,1.511,0,0,0-.446,1.076,1.511,1.511,0,0,0,.446,1.076A1.512,1.512,0,0,0-12.418-38.217Z" transform="translate(16.455 47.708)"/>
          </g>
          <g id="g9358" transform="translate(11.4 62.504)">
            <path id="path9360" d="M-8.487-47.708a4.012,4.012,0,0,1,2.855,1.183,4.043,4.043,0,0,1,0,5.711l-3.931,3.931A4.012,4.012,0,0,1-12.418-35.7a4.012,4.012,0,0,1-2.855-1.183,4.043,4.043,0,0,1,0-5.711l3.931-3.931A4.012,4.012,0,0,1-8.487-47.708Zm-3.931,9.491a1.512,1.512,0,0,0,1.076-.446l3.931-3.931a1.523,1.523,0,0,0,0-2.152,1.511,1.511,0,0,0-1.076-.445,1.511,1.511,0,0,0-1.076.445l-3.931,3.931a1.511,1.511,0,0,0-.446,1.076,1.511,1.511,0,0,0,.446,1.076A1.512,1.512,0,0,0-12.418-38.217Z" transform="translate(16.455 47.708)"/>
          </g>
          <g id="g9362" transform="translate(62.506 62.504)">
            <path id="path9364" d="M-43.656-16.47A4.012,4.012,0,0,1-40.8-15.287l3.931,3.931A4.012,4.012,0,0,1-35.686-8.5a4.012,4.012,0,0,1-1.183,2.855,4.012,4.012,0,0,1-2.855,1.183A4.012,4.012,0,0,1-42.58-5.645l-3.931-3.931a4.043,4.043,0,0,1,0-5.711A4.012,4.012,0,0,1-43.656-16.47Zm3.931,9.491a1.511,1.511,0,0,0,1.076-.446A1.511,1.511,0,0,0-38.2-8.5a1.511,1.511,0,0,0-.445-1.076l-3.931-3.931a1.511,1.511,0,0,0-1.076-.446,1.511,1.511,0,0,0-1.076.446,1.523,1.523,0,0,0,0,2.152L-40.8-7.425A1.511,1.511,0,0,0-39.725-6.979Z" transform="translate(47.692 16.47)"/>
          </g>
          <g id="g9366" transform="translate(11.401 11.399)">
            <path id="path9368" d="M-43.656-16.47A4.012,4.012,0,0,1-40.8-15.287l3.931,3.931A4.012,4.012,0,0,1-35.686-8.5a4.012,4.012,0,0,1-1.183,2.855,4.012,4.012,0,0,1-2.855,1.183A4.012,4.012,0,0,1-42.58-5.645l-3.931-3.931a4.043,4.043,0,0,1,0-5.711A4.012,4.012,0,0,1-43.656-16.47Zm3.931,9.491a1.511,1.511,0,0,0,1.076-.446A1.511,1.511,0,0,0-38.2-8.5a1.511,1.511,0,0,0-.445-1.076l-3.931-3.931a1.511,1.511,0,0,0-1.076-.446,1.511,1.511,0,0,0-1.076.446,1.523,1.523,0,0,0,0,2.152L-40.8-7.425A1.511,1.511,0,0,0-39.725-6.979Z" transform="translate(47.692 16.47)"/>
          </g>
          <g id="g9370" transform="translate(27.868 8.311)">
            <path id="path9372" d="M-16.133-25.325A1.259,1.259,0,0,1-17.3-26.1L-18.36-28.67a1.258,1.258,0,0,1,.681-1.644,1.258,1.258,0,0,1,1.644.681l1.064,2.568a1.258,1.258,0,0,1-.681,1.644A1.255,1.255,0,0,1-16.133-25.325Z" transform="translate(18.456 30.411)"/>
          </g>
          <g id="g9374" transform="translate(54.462 72.516)">
            <path id="path9376" d="M-16.133-25.325A1.259,1.259,0,0,1-17.3-26.1L-18.36-28.67a1.258,1.258,0,0,1,.681-1.644,1.258,1.258,0,0,1,1.644.681l1.064,2.568a1.258,1.258,0,0,1-.681,1.644A1.255,1.255,0,0,1-16.133-25.325Z" transform="translate(18.456 30.411)"/>
          </g>
          <g id="g9378" transform="translate(8.312 27.871)">
            <path id="path9380" d="M-26.584-14.875a1.254,1.254,0,0,1-.481-.1l-2.568-1.064a1.258,1.258,0,0,1-.681-1.644,1.258,1.258,0,0,1,1.644-.681L-26.1-17.3a1.258,1.258,0,0,1,.681,1.644A1.259,1.259,0,0,1-26.584-14.875Z" transform="translate(30.411 18.456)"/>
          </g>
          <g id="g9382" transform="translate(72.517 54.465)">
            <path id="path9384" d="M-26.584-14.875a1.254,1.254,0,0,1-.481-.1l-2.568-1.064a1.258,1.258,0,0,1-.681-1.644,1.258,1.258,0,0,1,1.644-.681L-26.1-17.3a1.258,1.258,0,0,1,.681,1.644A1.259,1.259,0,0,1-26.584-14.875Z" transform="translate(30.411 18.456)"/>
          </g>
          <g id="g9386" transform="translate(8.315 54.465)">
            <path id="path9388" d="M-29.151-6.421A1.259,1.259,0,0,1-30.314-7.2a1.258,1.258,0,0,1,.681-1.644l2.568-1.064a1.258,1.258,0,0,1,1.644.681A1.258,1.258,0,0,1-26.1-7.581L-28.67-6.517A1.255,1.255,0,0,1-29.151-6.421Z" transform="translate(30.411 10.003)"/>
          </g>
          <g id="g9390" transform="translate(72.52 27.871)">
            <path id="path9392" d="M-29.151-6.421A1.259,1.259,0,0,1-30.314-7.2a1.258,1.258,0,0,1,.681-1.644l2.568-1.064a1.258,1.258,0,0,1,1.644.681A1.258,1.258,0,0,1-26.1-7.581L-28.67-6.517A1.255,1.255,0,0,1-29.151-6.421Z" transform="translate(30.411 10.003)"/>
          </g>
          <g id="g9394" transform="translate(27.874 72.516)">
            <path id="path9396" d="M-17.2-4.917a1.254,1.254,0,0,1-.481-.1,1.258,1.258,0,0,1-.681-1.644L-17.3-9.225a1.258,1.258,0,0,1,1.644-.681,1.258,1.258,0,0,1,.681,1.644l-1.064,2.568A1.259,1.259,0,0,1-17.2-4.917Z" transform="translate(18.456 10.003)"/>
          </g>
          <g id="g9398" transform="translate(54.469 8.311)">
            <path id="path9400" d="M-17.2-4.917a1.254,1.254,0,0,1-.481-.1,1.258,1.258,0,0,1-.681-1.644L-17.3-9.225a1.258,1.258,0,0,1,1.644-.681,1.258,1.258,0,0,1,.681,1.644l-1.064,2.568A1.259,1.259,0,0,1-17.2-4.917Z" transform="translate(18.456 10.003)"/>
          </g>
        </g>
      </g>
    </g>
  </g>
</svg>
