<svg xmlns="http://www.w3.org/2000/svg" xmlns:xlink="http://www.w3.org/1999/xlink" width="115" height="115" viewBox="0 0 115 115">
  <defs>
    <clipPath id="clip-path">
      <rect id="Rectángulo_411067" data-name="Rectángulo 411067" width="115" height="115" transform="translate(800.781 1954)" fill="#e8bad8" opacity="0.41"/>
    </clipPath>
  </defs>
  <g id="Grupo_1206768" data-name="Grupo 1206768" transform="translate(6784 8352)">
    <g id="Enmascarar_grupo_1099382" data-name="Enmascarar grupo 1099382" transform="translate(-7584.781 -10306)" clip-path="url(#clip-path)">
      <g id="Grupo_1203949" data-name="Grupo 1203949" transform="translate(799.781 1960.273)">
        <g id="Grupo_1203948" data-name="Grupo 1203948">
          <ellipse id="Elipse_12741" data-name="Elipse 12741" cx="28.658" cy="28.658" rx="28.658" ry="28.658" transform="translate(56.527 44.289)" fill="#7fe5cf"/>
          <ellipse id="Elipse_12742" data-name="Elipse 12742" cx="20.842" cy="20.842" rx="20.842" ry="20.842" fill="#7fe5cf"/>
        </g>
      </g>
    </g>
    <g id="humedad" transform="translate(-6800.931 -8337)">
      <g id="Grupo_1206763" data-name="Grupo 1206763" transform="translate(38.17 1.272)">
        <path id="Trazado_1251544" data-name="Trazado 1251544" d="M262.492,15.874,256.834,7.96a.915.915,0,0,0-1.489,0l-5.659,7.914a7.872,7.872,0,1,0,12.806,0Z" transform="translate(-213.976 -7.577)" fill="#e1f1ff"/>
        <path id="Trazado_1251545" data-name="Trazado 1251545" d="M51.917,162.447a5.066,5.066,0,0,0,7.407-.8.836.836,0,0,1,1.345,0,5.066,5.066,0,0,0,8.148,0,.836.836,0,0,1,1.345,0,5.066,5.066,0,0,0,8.148,0,.836.836,0,0,1,1.345,0,5.071,5.071,0,0,0,5.992,1.679l8.2.38L86.4,146.008l-9.786-13.686a2.765,2.765,0,0,0-4.5,0l-17.1,23.911a24.18,24.18,0,0,0-3.22,6.215Z" transform="translate(-50.541 -110.417)" fill="#e1f1ff"/>
        <path id="Trazado_1251546" data-name="Trazado 1251546" d="M77.5,311.1a5.058,5.058,0,0,1-4.074-2.055.836.836,0,0,0-1.345,0,5.066,5.066,0,0,1-8.148,0,.836.836,0,0,0-1.345,0,5.066,5.066,0,0,1-8.148,0,.836.836,0,0,0-1.345,0,5.066,5.066,0,0,1-7.407.8,23.809,23.809,0,1,0,46.019,11.3L87.477,311.1l-8.056-.373A5.051,5.051,0,0,1,77.5,311.1Z" transform="translate(-44.314 -258.153)" fill="#cbe2ff"/>
        <path id="Trazado_1251547" data-name="Trazado 1251547" d="M256.269,15.875l3.112-4.351-2.547-3.562a.915.915,0,0,0-1.489,0l-5.659,7.914a7.889,7.889,0,0,0,9.695,11.746,7.887,7.887,0,0,1-3.112-11.746Z" transform="translate(-213.976 -7.578)" fill="#bbdafc"/>
        <path id="Trazado_1251548" data-name="Trazado 1251548" d="M51.917,162.448a5.066,5.066,0,0,0,7.407-.8.836.836,0,0,1,1.345,0,5.06,5.06,0,0,0,5.07,1.955,24.01,24.01,0,0,1,3.584-7.366L81.517,139.18l-4.9-6.858a2.765,2.765,0,0,0-4.5,0l-17.1,23.911a24.18,24.18,0,0,0-3.22,6.215Z" transform="translate(-50.541 -110.418)" fill="#bbdafc"/>
        <path id="Trazado_1251549" data-name="Trazado 1251549" d="M68.135,341.585a24.14,24.14,0,0,0,7.157-1.065A23.914,23.914,0,0,1,59.62,310.975a5.059,5.059,0,0,1-5.178-1.932.836.836,0,0,0-1.345,0,5.066,5.066,0,0,1-7.407.8A23.816,23.816,0,0,0,68.135,341.585Z" transform="translate(-44.313 -258.153)" fill="#9dc6fb"/>
        <circle id="Elipse_12795" data-name="Elipse 12795" cx="18.806" cy="18.806" r="18.806" transform="translate(33.44 26.016)" fill="#9dc6fb"/>
        <path id="Trazado_1251550" data-name="Trazado 1251550" d="M252.183,181.357a18.812,18.812,0,0,1,14.469-18.3,18.806,18.806,0,1,0,0,36.6A18.812,18.812,0,0,1,252.183,181.357Z" transform="translate(-210.07 -136.535)" fill="#80b4fb"/>
      </g>
      <g id="Grupo_1206767" data-name="Grupo 1206767" transform="translate(36.931 0)">
        <path id="Trazado_1251551" data-name="Trazado 1251551" d="M258.011,18.309a9.1,9.1,0,0,0-.692-9.487L251.66.909a2.176,2.176,0,0,0-3.537,0l-5.659,7.914a9.131,9.131,0,1,0,15.547,9.487Zm-13.5-8.022,5.379-7.523,5.379,7.523a6.5,6.5,0,0,1,.5,6.87,6.607,6.607,0,0,1-11.761,0A6.5,6.5,0,0,1,244.512,10.287Z" transform="translate(-206.538 0)"/>
        <path id="Trazado_1251552" data-name="Trazado 1251552" d="M60.768,126.738a1.505,1.505,0,0,1,2.451,0l2.989,4.179a1.259,1.259,0,1,0,2.048-1.465l-2.989-4.18a4.027,4.027,0,0,0-6.547,0l-17.1,23.911c-11.736,16.413-.159,39.609,20.371,39.609a24.969,24.969,0,0,0,24.583-20.175,20.066,20.066,0,1,0,7.035-39.5,1.259,1.259,0,1,0-.4,2.486,17.547,17.547,0,1,1-20.33,18,17.645,17.645,0,0,1,14.845-18.014,1.259,1.259,0,1,0-.382-2.489,20.06,20.06,0,0,0-13.381,8.345l-2.291-3.2a1.259,1.259,0,0,0-2.048,1.465l2.923,4.088a20.085,20.085,0,0,0-.992,15.991,3.762,3.762,0,0,1-3.26-1.536,2.1,2.1,0,0,0-3.369,0,3.805,3.805,0,0,1-6.124,0,2.1,2.1,0,0,0-3.369,0,3.8,3.8,0,0,1-6.124,0,2.1,2.1,0,0,0-3.369,0,3.793,3.793,0,0,1-4.869,1.084,23.31,23.31,0,0,1,2.6-4.678ZM47.627,156.16a6.329,6.329,0,0,0,9.493,0,6.329,6.329,0,0,0,9.493,0,6.346,6.346,0,0,0,6,2.022,19.986,19.986,0,0,0,11.523,9.8,22.552,22.552,0,1,1-43.886-10.252,6.333,6.333,0,0,0,7.378-1.572Z" transform="translate(-36.931 -102.844)"/>
        <g id="Grupo_1206764" data-name="Grupo 1206764" transform="translate(54.908 46.15)">
          <path id="Trazado_1251553" data-name="Trazado 1251553" d="M368.4,283.682a4.386,4.386,0,1,1,4.386-4.386A4.391,4.391,0,0,1,368.4,283.682Zm0-6.253a1.868,1.868,0,1,0,1.868,1.868A1.87,1.87,0,0,0,368.4,277.429Z" transform="translate(-364.017 -274.911)"/>
        </g>
        <g id="Grupo_1206765" data-name="Grupo 1206765" transform="translate(43.387 37.104)">
          <path id="Trazado_1251554" data-name="Trazado 1251554" d="M299.771,229.8a4.386,4.386,0,1,1,4.386-4.386A4.391,4.391,0,0,1,299.771,229.8Zm0-6.253a1.868,1.868,0,1,0,1.868,1.868A1.87,1.87,0,0,0,299.771,223.543Z" transform="translate(-295.385 -221.025)"/>
        </g>
        <g id="Grupo_1206766" data-name="Grupo 1206766" transform="translate(47.894 35.537)">
          <path id="Trazado_1251555" data-name="Trazado 1251555" d="M323.489,232.642a1.26,1.26,0,0,1-1.13-1.812l9.008-18.432a1.259,1.259,0,0,1,2.262,1.106l-9.008,18.432A1.259,1.259,0,0,1,323.489,232.642Z" transform="translate(-322.23 -211.692)"/>
        </g>
      </g>
    </g>
  </g>
</svg>
