<svg xmlns="http://www.w3.org/2000/svg" xmlns:xlink="http://www.w3.org/1999/xlink" width="115" height="115" viewBox="0 0 115 115">
  <defs>
    <clipPath id="clip-path">
      <rect id="Rectángulo_411069" data-name="Rectángulo 411069" width="115" height="115" transform="translate(800.781 1954)" fill="#e8bad8" opacity="0.41"/>
    </clipPath>
  </defs>
  <g id="Grupo_1206770" data-name="Grupo 1206770" transform="translate(6450 8352)">
    <g id="Enmascarar_grupo_1099383" data-name="Enmascarar grupo 1099383" transform="translate(-7250.781 -10306)" clip-path="url(#clip-path)">
      <g id="Grupo_1203951" data-name="Grupo 1203951" transform="translate(799.781 1960.273)">
        <g id="Grupo_1203950" data-name="Grupo 1203950">
          <ellipse id="Elipse_12743" data-name="Elipse 12743" cx="28.658" cy="28.658" rx="28.658" ry="28.658" transform="translate(56.527 44.289)" fill="#7fe5cf"/>
          <ellipse id="Elipse_12744" data-name="Elipse 12744" cx="20.842" cy="20.842" rx="20.842" ry="20.842" fill="#7fe5cf"/>
        </g>
      </g>
    </g>
    <g id="_11-rain" data-name="11-rain" transform="translate(-6433 -8334.999)">
      <path id="Trazado_1251556" data-name="Trazado 1251556" d="M78.879,31.476A16.818,16.818,0,0,0,59.717,14.709,23.689,23.689,0,0,0,14.544,24.7c0,.046.007.09.007.136a11.845,11.845,0,1,0-1.7,23.567H63.642V48.32A16.931,16.931,0,0,0,78.879,31.476Z" transform="translate(0.693 0.693)" fill="#6ee1ef"/>
      <g id="Grupo_1206769" data-name="Grupo 1206769" transform="translate(1.693 1.694)">
        <path id="Trazado_1251557" data-name="Trazado 1251557" d="M23.009,28.089a28.766,28.766,0,0,1,18.5-26.857A23.667,23.667,0,0,0,14.544,24.7c0,.046.007.09.007.136a11.845,11.845,0,1,0-1.7,23.567H31.407a28.689,28.689,0,0,1-8.4-20.316Z" transform="translate(-1 -1)" fill="#5fb1d7"/>
        <path id="Trazado_1251558" data-name="Trazado 1251558" d="M42.158,35.158c0,3.74-1.339,6.772-5.079,6.772S32,38.9,32,35.158,37.079,25,37.079,25,42.158,31.418,42.158,35.158Z" transform="translate(20.484 15.633)" fill="#5fb1d7"/>
        <path id="Trazado_1251559" data-name="Trazado 1251559" d="M16.772,44.772a3.386,3.386,0,0,1-6.772,0C10,42.9,13.386,38,13.386,38S16.772,42.9,16.772,44.772Z" transform="translate(5.237 24.642)" fill="#5fb1d7"/>
        <path id="Trazado_1251560" data-name="Trazado 1251560" d="M31.772,47.772a3.386,3.386,0,1,1-6.772,0C25,45.9,28.386,41,28.386,41S31.772,45.9,31.772,47.772Z" transform="translate(15.633 26.721)" fill="#5fb1d7"/>
        <path id="Trazado_1251561" data-name="Trazado 1251561" d="M24.772,38.772a3.386,3.386,0,0,1-6.772,0C18,36.9,21.386,32,21.386,32S24.772,36.9,24.772,38.772Z" transform="translate(10.782 20.484)" fill="#5fb1d7"/>
      </g>
      <path id="Trazado_1251562" data-name="Trazado 1251562" d="M61.4,13.594A25.372,25.372,0,0,0,13.614,23.7C13.591,23.7,0,24.3,0,37.248A13.56,13.56,0,0,0,13.544,50.792H49.1a1.693,1.693,0,1,0,0-3.386H13.544a10.158,10.158,0,1,1,0-20.316,12.342,12.342,0,0,1,8.769,4.355,1.9,1.9,0,0,0,2.358.42,1.688,1.688,0,0,0,.42-2.358,14.054,14.054,0,0,0-8.1-5.371,21.963,21.963,0,0,1,40.844-9.949,18.47,18.47,0,0,0-10.1,6.807,1.647,1.647,0,0,0,.337,2.371,1.829,1.829,0,0,0,2.371-.337,14.844,14.844,0,0,1,12.191-6.1,15.237,15.237,0,0,1,9.141,27.427,1.693,1.693,0,1,0,2.034,2.708,18.482,18.482,0,0,0,7.448-14.9C81.265,14.166,61.835,13.561,61.4,13.594Z" transform="translate(0 0)"/>
      <path id="Trazado_1251563" data-name="Trazado 1251563" d="M36.444,24.629c-.557.7-5.444,7-5.444,11.209,0,5.3,2.531,8.465,6.772,8.465s6.772-3.165,6.772-8.465c0-4.208-4.887-10.5-5.444-11.209a1.752,1.752,0,0,0-2.655,0Zm1.328,16.288c-.837,0-3.386,0-3.386-5.079,0-1.782,1.751-4.909,3.387-7.3,1.635,2.384,3.385,5.511,3.385,7.3C41.158,40.917,38.61,40.917,37.772,40.917Z" transform="translate(21.484 16.647)"/>
      <path id="Trazado_1251564" data-name="Trazado 1251564" d="M12.686,37.713C11.578,39.318,9,43.283,9,45.447a5.079,5.079,0,1,0,10.158,0c0-2.164-2.578-6.129-3.686-7.734a1.756,1.756,0,0,0-2.786,0Zm1.393,9.427a1.694,1.694,0,0,1-1.693-1.691,12.678,12.678,0,0,1,1.693-3.636,12.662,12.662,0,0,1,1.693,3.636A1.7,1.7,0,0,1,14.079,47.14Z" transform="translate(6.237 25.661)"/>
      <path id="Trazado_1251565" data-name="Trazado 1251565" d="M27.686,40.713C26.578,42.318,24,46.283,24,48.447a5.079,5.079,0,0,0,10.158,0c0-2.164-2.578-6.129-3.686-7.734a1.756,1.756,0,0,0-2.786,0Zm1.393,9.427a1.694,1.694,0,0,1-1.693-1.691,12.677,12.677,0,0,1,1.693-3.636,12.662,12.662,0,0,1,1.693,3.636,1.7,1.7,0,0,1-1.693,1.691Z" transform="translate(16.633 27.74)"/>
      <path id="Trazado_1251566" data-name="Trazado 1251566" d="M20.686,31.713C19.578,33.318,17,37.283,17,39.447a5.079,5.079,0,0,0,10.158,0c0-2.164-2.578-6.129-3.686-7.734a1.756,1.756,0,0,0-2.786,0Zm1.393,9.427a1.694,1.694,0,0,1-1.693-1.691,12.677,12.677,0,0,1,1.693-3.636,12.662,12.662,0,0,1,1.693,3.636A1.7,1.7,0,0,1,22.079,41.14Z" transform="translate(11.782 21.503)"/>
    </g>
  </g>
</svg>
