<svg xmlns="http://www.w3.org/2000/svg" xmlns:xlink="http://www.w3.org/1999/xlink" width="115" height="115" viewBox="0 0 115 115">
  <defs>
    <clipPath id="clip-path">
      <rect id="Rectángulo_411075" data-name="Rectángulo 411075" width="115" height="115" transform="translate(800.781 1954)" fill="#e8bad8" opacity="0.41"/>
    </clipPath>
  </defs>
  <g id="Grupo_1206784" data-name="Grupo 1206784" transform="translate(5433 8354)">
    <g id="Enmascarar_grupo_1099386" data-name="Enmascarar grupo 1099386" transform="translate(-6233.781 -10308)" clip-path="url(#clip-path)">
      <g id="Grupo_1203957" data-name="Grupo 1203957" transform="translate(799.781 1960.273)">
        <g id="Grupo_1203956" data-name="Grupo 1203956">
          <ellipse id="Elipse_12749" data-name="Elipse 12749" cx="28.658" cy="28.658" rx="28.658" ry="28.658" transform="translate(56.527 44.289)" fill="#7fe5cf"/>
          <ellipse id="Elipse_12750" data-name="Elipse 12750" cx="20.842" cy="20.842" rx="20.842" ry="20.842" fill="#7fe5cf"/>
        </g>
      </g>
    </g>
    <g id="agricultura" transform="translate(-5417.997 -8330)">
      <g id="Grupo_1206782" data-name="Grupo 1206782" transform="translate(0.663 0.664)">
        <path id="Trazado_1251583" data-name="Trazado 1251583" d="M293.256,4.154a78.729,78.729,0,0,0-25,2.209,53.827,53.827,0,0,0-16.28,7.333l0,0c-.085,2.882,1.858,4.319,5.659,4.437l5.5.153c1.722,1.9,3,2.213,3.58,0h8.613c2.234,2.5,4.452,2.541,6.653,0l11.276-.141.121,0C293.315,9.971,293.256,4.154,293.256,4.154Z" transform="translate(-210.702 -3.988)" fill="#89a25b"/>
        <path id="Trazado_1251584" data-name="Trazado 1251584" d="M50.935,18.135A50.623,50.623,0,0,0,45.276,13.7,53.761,53.761,0,0,0,29,6.363,78.729,78.729,0,0,0,4,4.154V18.147l11.276.141c1.554,1.929,4.041,1.147,6.653,0h8.613c1.149,1.586,2.345,1.476,3.58,0h5.494l.478,2.276c3.592,9.413,7.247,9.3,10.843-.1V18.288C51.062,18.232,51.011,18.184,50.935,18.135Z" transform="translate(-4.001 -3.988)" fill="#a8b875"/>
        <path id="Trazado_1251585" data-name="Trazado 1251585" d="M410.393,91.062c-.044-9.565-4.3-11.552-11.459-8.329h-6.653c3.055,23.028,8.184,34.371,18.17,18.347C410.435,97.686,410.415,94.3,410.393,91.062Z" transform="translate(-327.656 -68.433)" fill="#7f5d46"/>
        <path id="Trazado_1251586" data-name="Trazado 1251586" d="M296.313,89.9h-3.58c-12.243,16.736-1.134,37.334,13.5,51.64h16.624C316.357,118.449,308.983,97.545,296.313,89.9Z" transform="translate(-240.301 -75.605)" fill="#7f5d46"/>
        <path id="Trazado_1251587" data-name="Trazado 1251587" d="M200.681,89.9A5.391,5.391,0,0,0,195.29,95.3,5.391,5.391,0,0,0,189.9,89.9h-.27c-9.785,16.868-5.514,34.194,2.423,51.64h6.475c10.264-13.98,13.289-30.435,2.423-51.64Z" transform="translate(-154.013 -75.605)" fill="#7f5d46"/>
        <path id="Trazado_1251588" data-name="Trazado 1251588" d="M30.543,89.9C18.487,102.043,10.538,120.676,4,141.545H20.625c15.185-17.04,23.836-34.185,13.5-51.64Z" transform="translate(-4.001 -75.605)" fill="#7f5d46"/>
        <path id="Trazado_1251589" data-name="Trazado 1251589" d="M15.277,89.9C10.422,89.857,6.81,93.011,4,98.233v10.018c9.613,0,14.876-7.319,17.929-18.348Z" transform="translate(-4.001 -75.603)" fill="#7f5d46"/>
        <path id="Trazado_1251590" data-name="Trazado 1251590" d="M29.709,67.8a2.928,2.928,0,0,1,.834,3.34,4.766,4.766,0,0,1-.651,1.323,4.833,4.833,0,0,1-.509.611,7.012,7.012,0,0,1-1.125,6.175,7.98,7.98,0,0,1-2.109,2.072,10.6,10.6,0,0,1-1.907,8.4,12.177,12.177,0,0,1-2.32,2.495,9.978,9.978,0,0,1-3.169,7.708,10.281,10.281,0,0,1-2.913,1.942,5.876,5.876,0,0,1-4.1,6.455,5.877,5.877,0,0,1-3.565,7.438,5.848,5.848,0,0,1-.563,4.138A5.669,5.669,0,0,1,4,122.782V89.491a10.337,10.337,0,0,1,6.829-5.424,12.281,12.281,0,0,1,1.445-2.733,11.048,11.048,0,0,1,6.067-4.441,7.763,7.763,0,0,1,1.39-3.618,7.941,7.941,0,0,1,2.2-2.132,6.32,6.32,0,0,1,2.836-1.014,4.762,4.762,0,0,1,.5-.907c1.177-1.679,3.167-2.315,4.446-1.42Z" transform="translate(-4.001 -56.843)" fill="#53b79a"/>
        <path id="Trazado_1251591" data-name="Trazado 1251591" d="M277.493,71.683a4.067,4.067,0,0,1-.574,1.977,4.4,4.4,0,0,1,2.112,3.816,4.553,4.553,0,0,1-.509,2.105,6.352,6.352,0,0,1,1.788,4.512,6.658,6.658,0,0,1-.686,2.974,8.121,8.121,0,0,1,3.6,6.971,8.919,8.919,0,0,1-.819,3.772,10.235,10.235,0,0,1,3.424,7.844,11.168,11.168,0,0,1-.471,3.229c2.8,1.361,4.652,3.717,4.652,6.395a6.035,6.035,0,0,1-.969,3.242c1.46.934,2.33,2.1,2.33,3.377a2.982,2.982,0,0,1-.374,1.425H269.576a3,3,0,0,1-.375-1.425A3.807,3.807,0,0,1,270.857,119a6.17,6.17,0,0,1-1.3-3.725,6.254,6.254,0,0,1,1.528-4.011,10.807,10.807,0,0,1-1.528-5.612,10.656,10.656,0,0,1,2.007-6.326,8.878,8.878,0,0,1,.261-10.9,6.639,6.639,0,0,1-.183-8.465,4.545,4.545,0,0,1-.732-2.49,4.431,4.431,0,0,1,1.8-3.612A4,4,0,0,1,272,71.683c0-.052,0-.1,0-.153,0-1.926,1.232-3.485,2.75-3.485S277.5,69.6,277.5,71.53c0,.052,0,.1,0,.153Z" transform="translate(-225.061 -57.383)" fill="#53b79a"/>
        <path id="Trazado_1251592" data-name="Trazado 1251592" d="M439.647,72.829l-.183,0c-2.115,1.273-5.408.166-7.563-2.62a8.508,8.508,0,0,1-1.751-4.03,4.485,4.485,0,0,1-1.962-1.681c-.03-.045-.06-.09-.088-.136-1.089-1.759-.93-3.83.355-4.625,1.262-.781,3.136-.04,4.234,1.653,2.084-.641,4.872.508,6.776,2.968l.121,0C439.605,66.977,439.627,69.838,439.647,72.829Z" transform="translate(-356.91 -50.2)" fill="#53b79a"/>
        <path id="Trazado_1251593" data-name="Trazado 1251593" d="M366.408,89.489c.085,16.577.088,33.293-.241,33.293-1.58,0-2.795-1.391-3.608-2.888a5.848,5.848,0,0,1-.563-4.138,5.877,5.877,0,0,1-3.565-7.438,5.877,5.877,0,0,1-4.1-6.455,10.281,10.281,0,0,1-2.913-1.942,9.978,9.978,0,0,1-3.169-7.708,12.175,12.175,0,0,1-2.32-2.495,10.6,10.6,0,0,1-1.907-8.4,7.98,7.98,0,0,1-2.109-2.072,7.012,7.012,0,0,1-1.125-6.175,4.834,4.834,0,0,1-.509-.611,4.765,4.765,0,0,1-.651-1.323,2.928,2.928,0,0,1,.834-3.34c1.278-.9,3.269-.26,4.446,1.42a4.767,4.767,0,0,1,.5.907,6.32,6.32,0,0,1,2.836,1.014,7.94,7.94,0,0,1,2.2,2.132,7.763,7.763,0,0,1,1.39,3.618,11.048,11.048,0,0,1,6.067,4.441,12.281,12.281,0,0,1,1.445,2.733,10.337,10.337,0,0,1,6.829,5.424Z" transform="translate(-283.612 -56.843)" fill="#6fceae"/>
        <path id="Trazado_1251594" data-name="Trazado 1251594" d="M115.5,71.683c0-.05,0-.1,0-.153,0-1.926,1.232-3.485,2.751-3.485S121,69.6,121,71.53c0,.052,0,.1,0,.153a4,4,0,0,1-.709,2.182,4.431,4.431,0,0,1,1.8,3.612,4.545,4.545,0,0,1-.732,2.49,6.639,6.639,0,0,1-.183,8.465,8.878,8.878,0,0,1,.261,10.9,10.656,10.656,0,0,1,2.007,6.326,10.806,10.806,0,0,1-1.528,5.612,6.254,6.254,0,0,1,1.528,4.011,6.17,6.17,0,0,1-1.3,3.725A3.807,3.807,0,0,1,123.8,121.9a3,3,0,0,1-.374,1.425H102.005a2.982,2.982,0,0,1-.374-1.425c0-1.273.87-2.443,2.33-3.377a6.035,6.035,0,0,1-.969-3.242c0-2.678,1.852-5.033,4.652-6.395a11.168,11.168,0,0,1-.471-3.229,10.235,10.235,0,0,1,3.424-7.844,8.919,8.919,0,0,1-.819-3.772,8.121,8.121,0,0,1,3.6-6.971,6.658,6.658,0,0,1-.686-2.974,6.352,6.352,0,0,1,1.788-4.512,4.554,4.554,0,0,1-.509-2.105,4.4,4.4,0,0,1,2.112-3.816,4.068,4.068,0,0,1-.574-1.977Z" transform="translate(-85.381 -57.383)" fill="#6fceae"/>
        <path id="Trazado_1251595" data-name="Trazado 1251595" d="M15.011,59.738c1.285.8,1.443,2.866.355,4.625-.028.047-.058.092-.088.136a4.485,4.485,0,0,1-1.962,1.681,8.507,8.507,0,0,1-1.751,4.03C9.409,73,6.116,74.1,4,72.831V64.359c1.9-2.46,4.692-3.608,6.776-2.968C11.875,59.7,13.749,58.958,15.011,59.738Z" transform="translate(-4.001 -50.2)" fill="#6fceae"/>
        <g id="Grupo_1206781" data-name="Grupo 1206781" transform="translate(1.628 15.448)">
          <path id="Trazado_1251596" data-name="Trazado 1251596" d="M15.475,96.805a1.7,1.7,0,1,1-1.694,1.7A1.7,1.7,0,0,1,15.475,96.805Z" transform="translate(-13.781 -96.805)" fill="#ffc05a"/>
          <path id="Trazado_1251597" data-name="Trazado 1251597" d="M473.845,312.165a2.193,2.193,0,1,1-2.194,2.192A2.193,2.193,0,0,1,473.845,312.165Z" transform="translate(-395.443 -276.32)" fill="#ffc05a"/>
          <circle id="Elipse_12799" data-name="Elipse 12799" cx="1.694" cy="1.694" r="1.694" transform="translate(72.458 29.162)" fill="#ffc05a"/>
          <circle id="Elipse_12800" data-name="Elipse 12800" cx="1.694" cy="1.694" r="1.694" transform="translate(58.332 1.696)" fill="#ffc05a"/>
          <path id="Trazado_1251598" data-name="Trazado 1251598" d="M408.705,147.065a1.694,1.694,0,1,1-1.694,1.694A1.694,1.694,0,0,1,408.705,147.065Z" transform="translate(-341.562 -138.7)" fill="#ffc05a"/>
          <path id="Trazado_1251599" data-name="Trazado 1251599" d="M454.375,194.385a2.193,2.193,0,1,1-2.194,2.194A2.193,2.193,0,0,1,454.375,194.385Z" transform="translate(-379.214 -178.144)" fill="#ffc05a"/>
          <circle id="Elipse_12801" data-name="Elipse 12801" cx="1.694" cy="1.694" r="1.694" transform="translate(66.361 19.409)" fill="#ffc05a"/>
          <circle id="Elipse_12802" data-name="Elipse 12802" cx="1.694" cy="1.694" r="1.694" transform="translate(29.225 9.341)" fill="#ffc05a"/>
          <path id="Trazado_1251600" data-name="Trazado 1251600" d="M137.312,355.745a2.612,2.612,0,1,1-2.611,2.613A2.613,2.613,0,0,1,137.312,355.745Z" transform="translate(-114.575 -312.647)" fill="#ffc05a"/>
          <circle id="Elipse_12803" data-name="Elipse 12803" cx="2.613" cy="2.613" r="2.613" transform="translate(27.518 32.551)" fill="#ffc05a"/>
          <path id="Trazado_1251601" data-name="Trazado 1251601" d="M189.142,216.3a2,2,0,1,1-2,2A2,2,0,0,1,189.142,216.3Z" transform="translate(-158.287 -196.415)" fill="#ffc05a"/>
        </g>
        <path id="Trazado_1251602" data-name="Trazado 1251602" d="M471.555,96.805a1.7,1.7,0,1,1-1.694,1.7A1.7,1.7,0,0,1,471.555,96.805Z" transform="translate(-392.323 -81.357)" fill="#e15c63"/>
        <path id="Trazado_1251603" data-name="Trazado 1251603" d="M340.524,355.745a2.612,2.612,0,1,1-2.613,2.613A2.612,2.612,0,0,1,340.524,355.745Z" transform="translate(-282.335 -297.199)" fill="#e15c63"/>
        <circle id="Elipse_12804" data-name="Elipse 12804" cx="2.613" cy="2.613" r="2.613" transform="translate(48.183 47.999)" fill="#e15c63"/>
        <path id="Trazado_1251604" data-name="Trazado 1251604" d="M294.813,216.3a2,2,0,1,1-2,2A2,2,0,0,1,294.813,216.3Z" transform="translate(-244.741 -180.967)" fill="#e15c63"/>
        <circle id="Elipse_12805" data-name="Elipse 12805" cx="1.694" cy="1.694" r="1.694" transform="translate(48.313 24.789)" fill="#e15c63"/>
        <circle id="Elipse_12806" data-name="Elipse 12806" cx="1.694" cy="1.694" r="1.694" transform="translate(19.206 17.144)" fill="#e15c63"/>
        <path id="Trazado_1251605" data-name="Trazado 1251605" d="M78.317,147.065a1.694,1.694,0,1,1-1.7,1.694A1.694,1.694,0,0,1,78.317,147.065Z" transform="translate(-64.534 -123.251)" fill="#e15c63"/>
        <circle id="Elipse_12807" data-name="Elipse 12807" cx="1.694" cy="1.694" r="1.694" transform="translate(11.176 34.857)" fill="#e15c63"/>
        <circle id="Elipse_12808" data-name="Elipse 12808" cx="1.694" cy="1.694" r="1.694" transform="translate(5.08 44.61)" fill="#e15c63"/>
        <path id="Trazado_1251606" data-name="Trazado 1251606" d="M27.663,194.385a2.193,2.193,0,1,1-2.192,2.194A2.193,2.193,0,0,1,27.663,194.385Z" transform="translate(-21.898 -162.695)" fill="#e15c63"/>
        <path id="Trazado_1251607" data-name="Trazado 1251607" d="M8.193,312.165A2.193,2.193,0,1,1,6,314.357a2.193,2.193,0,0,1,2.192-2.192Z" transform="translate(-5.668 -260.872)" fill="#e15c63"/>
        <path id="Trazado_1251608" data-name="Trazado 1251608" d="M410.451,108.252l-.241,0a10.337,10.337,0,0,0-6.829-5.424,12.281,12.281,0,0,0-1.445-2.733,11.048,11.048,0,0,0-6.067-4.441,7.764,7.764,0,0,0-1.39-3.618,7.94,7.94,0,0,0-2.2-2.132h3.891a8.252,8.252,0,0,1,.637.8,7.764,7.764,0,0,1,1.39,3.618,11.048,11.048,0,0,1,6.067,4.441,12.284,12.284,0,0,1,1.445,2.733,10.17,10.17,0,0,1,4.684,2.537l.035.033c.007,1.386.015,2.786.022,4.184Z" transform="translate(-327.656 -75.605)" fill="#684d3c"/>
        <path id="Trazado_1251609" data-name="Trazado 1251609" d="M333.014,140.12a2.982,2.982,0,0,1-.375,1.425h-3a2.982,2.982,0,0,0,.374-1.425c0-1.273-.87-2.443-2.33-3.377a6.035,6.035,0,0,0,.969-3.242c0-2.678-1.852-5.033-4.652-6.395a11.168,11.168,0,0,0,.471-3.229,10.235,10.235,0,0,0-3.424-7.844,8.919,8.919,0,0,0,.819-3.772,8.121,8.121,0,0,0-3.6-6.971,6.658,6.658,0,0,0,.686-2.974,6.352,6.352,0,0,0-1.788-4.512,4.554,4.554,0,0,0,.509-2.105,4.4,4.4,0,0,0-2.112-3.816,4.068,4.068,0,0,0,.574-1.977h3a4.067,4.067,0,0,1-.574,1.977,4.345,4.345,0,0,1,2.026,2.916,4.692,4.692,0,0,1,.087.9,4.554,4.554,0,0,1-.509,2.105,6.352,6.352,0,0,1,1.788,4.512,6.658,6.658,0,0,1-.686,2.974,8.121,8.121,0,0,1,3.6,6.971,8.919,8.919,0,0,1-.819,3.772,10.235,10.235,0,0,1,3.424,7.844,11.169,11.169,0,0,1-.471,3.229c2.8,1.361,4.652,3.717,4.652,6.395a6.035,6.035,0,0,1-.969,3.242C332.143,137.677,333.014,138.847,333.014,140.12Z" transform="translate(-263.713 -75.605)" fill="#684d3c"/>
        <path id="Trazado_1251610" data-name="Trazado 1251610" d="M220.067,140.12a3,3,0,0,1-.374,1.425h-2.829a3,3,0,0,0,.374-1.425,3.807,3.807,0,0,0-1.656-2.894,6.17,6.17,0,0,0,1.3-3.725,6.254,6.254,0,0,0-1.528-4.011,10.806,10.806,0,0,0,1.528-5.612,10.656,10.656,0,0,0-2.007-6.326,8.878,8.878,0,0,0-.261-10.9,6.639,6.639,0,0,0,.183-8.465,4.545,4.545,0,0,0,.732-2.49,4.43,4.43,0,0,0-1.8-3.612,4,4,0,0,0,.709-2.182h.27a5.354,5.354,0,0,1,2.495.611,3.851,3.851,0,0,1-.644,1.571,4.43,4.43,0,0,1,1.8,3.612,4.545,4.545,0,0,1-.732,2.49,6.639,6.639,0,0,1-.183,8.465,8.878,8.878,0,0,1,.261,10.9,10.656,10.656,0,0,1,2.007,6.326,10.807,10.807,0,0,1-1.528,5.612,6.254,6.254,0,0,1,1.528,4.011,6.17,6.17,0,0,1-1.3,3.725,3.807,3.807,0,0,1,1.656,2.894Z" transform="translate(-178.824 -75.605)" fill="#684d3c"/>
        <path id="Trazado_1251611" data-name="Trazado 1251611" d="M48.048,89.9h3.544c-.015.055-.032.112-.048.166a4.766,4.766,0,0,1-.651,1.323,4.833,4.833,0,0,1-.509.611,5.544,5.544,0,0,1,.286,1.453,4.559,4.559,0,0,0-.579,2.24,4.627,4.627,0,0,0,.072.809,8.188,8.188,0,0,1-.9,1.673,7.98,7.98,0,0,1-2.109,2.072,10.6,10.6,0,0,1-1.907,8.4,12.177,12.177,0,0,1-2.32,2.495,9.978,9.978,0,0,1-3.169,7.708,10.281,10.281,0,0,1-2.913,1.942,5.876,5.876,0,0,1-4.1,6.455,5.877,5.877,0,0,1-3.565,7.438,5.848,5.848,0,0,1-.563,4.138,5.717,5.717,0,0,1-3.071,2.721H25v-2.691c.04-.065.077-.13.113-.2a5.848,5.848,0,0,0,.563-4.138,5.877,5.877,0,0,0,3.565-7.438,5.876,5.876,0,0,0,4.1-6.455,10.281,10.281,0,0,0,2.913-1.942,9.978,9.978,0,0,0,3.169-7.708,12.177,12.177,0,0,0,2.32-2.495,10.6,10.6,0,0,0,1.907-8.4,7.98,7.98,0,0,0,2.109-2.072,7.012,7.012,0,0,0,1.125-6.175,4.832,4.832,0,0,0,.509-.611A4.766,4.766,0,0,0,48.048,89.9Z" transform="translate(-21.506 -75.605)" fill="#684d3c"/>
        <path id="Trazado_1251612" data-name="Trazado 1251612" d="M17.965,89.9H15.277a4.485,4.485,0,0,1-1.962,1.681,8.507,8.507,0,0,1-1.751,4.03A8.226,8.226,0,0,1,7.5,98.533a4.334,4.334,0,0,1-3.5-.3v2.878a5.461,5.461,0,0,0,3.5.389,10.021,10.021,0,0,0,5.634-2.8c.112-.121.216-.246.316-.374a8.507,8.507,0,0,0,1.751-4.03,4.485,4.485,0,0,0,1.962-1.681c.03-.045.06-.09.088-.136A4.543,4.543,0,0,0,17.965,89.9Z" transform="translate(-4.001 -75.605)" fill="#684d3c"/>
      </g>
      <g id="Grupo_1206783" data-name="Grupo 1206783" transform="translate(-0.003 0)">
        <path id="Trazado_1251613" data-name="Trazado 1251613" d="M337.189,351.742a3.279,3.279,0,1,0,3.279,3.279A3.282,3.282,0,0,0,337.189,351.742Zm0,5.226a1.947,1.947,0,1,1,1.947-1.947A1.949,1.949,0,0,1,337.189,356.968Z" transform="translate(-278.333 -293.198)" fill="#3a322b"/>
        <path id="Trazado_1251614" data-name="Trazado 1251614" d="M292.775,288.375a3.279,3.279,0,1,0,3.279,3.279A3.282,3.282,0,0,0,292.775,288.375Zm0,5.226a1.947,1.947,0,1,1,1.947-1.947A1.949,1.949,0,0,1,292.775,293.6Z" transform="translate(-241.312 -240.378)" fill="#3a322b"/>
        <path id="Trazado_1251615" data-name="Trazado 1251615" d="M291.48,217.639a2.667,2.667,0,1,0-2.667-2.667A2.67,2.67,0,0,0,291.48,217.639Zm0-4a1.336,1.336,0,1,1-1.335,1.336A1.337,1.337,0,0,1,291.48,213.636Z" transform="translate(-240.742 -176.969)" fill="#3a322b"/>
        <path id="Trazado_1251616" data-name="Trazado 1251616" d="M292.63,153.645a2.361,2.361,0,1,0-2.361-2.36A2.363,2.363,0,0,0,292.63,153.645Zm0-3.39a1.029,1.029,0,1,1-1.029,1.029A1.03,1.03,0,0,1,292.63,150.256Z" transform="translate(-241.956 -124.137)" fill="#3a322b"/>
        <path id="Trazado_1251617" data-name="Trazado 1251617" d="M360.246,105.35a2.361,2.361,0,1,0,2.361-2.36A2.363,2.363,0,0,0,360.246,105.35Zm3.39,0a1.029,1.029,0,1,1-1.029-1.029A1.03,1.03,0,0,1,363.636,105.35Z" transform="translate(-300.286 -85.848)" fill="#3a322b"/>
        <path id="Trazado_1251618" data-name="Trazado 1251618" d="M407.734,145.421a2.361,2.361,0,1,0-2.36,2.36A2.363,2.363,0,0,0,407.734,145.421Zm-3.389,0a1.029,1.029,0,1,1,1.029,1.029A1.03,1.03,0,0,1,404.345,145.421Z" transform="translate(-335.935 -119.249)" fill="#3a322b"/>
        <path id="Trazado_1251619" data-name="Trazado 1251619" d="M468.219,92.808a2.361,2.361,0,1,0,2.36,2.361A2.363,2.363,0,0,0,468.219,92.808Zm0,3.389a1.029,1.029,0,1,1,1.029-1.029A1.03,1.03,0,0,1,468.219,96.2Z" transform="translate(-388.32 -77.361)" fill="#3a322b"/>
        <path id="Trazado_1251620" data-name="Trazado 1251620" d="M410.847,214.135a2.361,2.361,0,1,0-2.361-2.361A2.363,2.363,0,0,0,410.847,214.135Zm0-3.389a1.029,1.029,0,1,1-1.029,1.029A1.03,1.03,0,0,1,410.847,210.746Z" transform="translate(-340.497 -174.559)" fill="#3a322b"/>
        <path id="Trazado_1251621" data-name="Trazado 1251621" d="M447.48,272.731a2.361,2.361,0,1,0-2.361-2.36A2.363,2.363,0,0,0,447.48,272.731Zm0-3.39a1.029,1.029,0,1,1-1.029,1.029A1.03,1.03,0,0,1,447.48,269.342Z" transform="translate(-371.033 -223.402)" fill="#3a322b"/>
        <path id="Trazado_1251622" data-name="Trazado 1251622" d="M451.042,196.1a2.858,2.858,0,1,0-2.858-2.858A2.862,2.862,0,0,0,451.042,196.1Zm0-4.385a1.527,1.527,0,1,1-1.527,1.527A1.528,1.528,0,0,1,451.042,191.719Z" transform="translate(-373.588 -158.699)" fill="#3a322b"/>
        <path id="Trazado_1251623" data-name="Trazado 1251623" d="M470.511,313.883a2.858,2.858,0,1,0-2.858-2.858A2.862,2.862,0,0,0,470.511,313.883Zm0-4.385a1.527,1.527,0,1,1-1.527,1.527A1.529,1.529,0,0,1,470.511,309.5Z" transform="translate(-389.816 -256.875)" fill="#3a322b"/>
        <path id="Trazado_1251624" data-name="Trazado 1251624" d="M83.382,65.958A5,5,0,0,1,80.193,63.4a5.2,5.2,0,0,1-.5-3.669.666.666,0,0,0-.423-.777,5.21,5.21,0,0,1-3.162-6.6.666.666,0,0,0-.435-.853,5.211,5.211,0,0,1-3.638-5.722.666.666,0,0,0-.39-.7,9.61,9.61,0,0,1-2.725-1.818,9.3,9.3,0,0,1-2.961-7.191.666.666,0,0,0-.246-.55,11.55,11.55,0,0,1-2.193-2.359A9.95,9.95,0,0,1,61.716,25.3a.666.666,0,0,0-.278-.714,7.274,7.274,0,0,1-1.932-1.9,6.378,6.378,0,0,1-1.041-5.575.665.665,0,0,0-.153-.683,4.226,4.226,0,0,1-.439-.527c-.948-1.353-.94-3.064.019-3.736A1.873,1.873,0,0,1,59.567,12a3.679,3.679,0,0,1,1.842,1.424,4.141,4.141,0,0,1,.429.781.665.665,0,0,0,.555.406,6.487,6.487,0,0,1,4.549,2.865,7.1,7.1,0,0,1,1.273,3.305.666.666,0,0,0,.493.574,10.446,10.446,0,0,1,5.69,4.179,11.63,11.63,0,0,1,1.367,2.585.666.666,0,0,0,.472.415,9.664,9.664,0,0,1,6.384,5.073.666.666,0,0,0,1.192-.593,11,11,0,0,0-6.93-5.69,12.993,12.993,0,0,0-1.395-2.554,11.945,11.945,0,0,0-6.01-4.578,8.52,8.52,0,0,0-1.446-3.48,8.892,8.892,0,0,0-.9-1.085H71.6A5.181,5.181,0,0,0,73.3,17.1a9.238,9.238,0,0,0,1.827,3.985,8.1,8.1,0,0,0,6.085,3.409,4.508,4.508,0,0,0,2.349-.626.666.666,0,0,0-.687-1.141c-1.833,1.1-4.774.025-6.693-2.456a7.9,7.9,0,0,1-1.617-3.709.666.666,0,0,0-.4-.528,3.854,3.854,0,0,1-1.739-1.555A3.84,3.84,0,0,1,71.8,12.2a1.771,1.771,0,0,1,.754-1.436c.938-.581,2.43.069,3.326,1.449a.666.666,0,0,0,.754.274c1.871-.575,4.359.551,6.053,2.74a.666.666,0,1,0,1.053-.815c-1.893-2.447-4.711-3.755-7.021-3.316-1.333-1.726-3.4-2.373-4.866-1.464a3.061,3.061,0,0,0-1.38,2.466,4.915,4.915,0,0,0,.368,2.2H65.473a7.058,7.058,0,0,0-2.571-.963,5.424,5.424,0,0,0-.4-.673,5.015,5.015,0,0,0-2.528-1.928,3.17,3.17,0,0,0-2.845.345,3.365,3.365,0,0,0-1.263,3.22H53.736a3.735,3.735,0,0,0-3.389-3.639,3.554,3.554,0,0,0-3.238,2.833q-1.915-1.651-3.982-3.1A53.683,53.683,0,0,1,58.393,3.682,78.441,78.441,0,0,1,83.179,1.494.666.666,0,1,0,83.255.165,79.765,79.765,0,0,0,58.047,2.4a54.845,54.845,0,0,0-16.11,7.18,54.831,54.831,0,0,0-16.1-7.18A79.76,79.76,0,0,0,.626.165.666.666,0,0,0,.7,1.494,78.432,78.432,0,0,1,25.488,3.682,52.242,52.242,0,0,1,46.144,14.418a6.076,6.076,0,0,0-4.2,3.178,6.066,6.066,0,0,0-5.017-3.285,3.738,3.738,0,0,0-3.39-3.652A3.735,3.735,0,0,0,30.144,14.3H28.017a3.366,3.366,0,0,0-1.263-3.22,3.17,3.17,0,0,0-2.845-.345,5.015,5.015,0,0,0-2.528,1.928,5.438,5.438,0,0,0-.4.673,7.058,7.058,0,0,0-2.571.963H13.035a4.914,4.914,0,0,0,.368-2.2,3.061,3.061,0,0,0-1.38-2.466c-1.469-.909-3.533-.262-4.866,1.464-2.31-.44-5.128.869-7.021,3.316a.666.666,0,1,0,1.053.815c1.694-2.189,4.183-3.315,6.053-2.74A.665.665,0,0,0,8,12.217c.9-1.379,2.388-2.03,3.326-1.449a1.771,1.771,0,0,1,.754,1.436,3.841,3.841,0,0,1-.615,2.273,3.855,3.855,0,0,1-1.739,1.555.666.666,0,0,0-.4.528A7.894,7.894,0,0,1,7.7,20.267c-1.92,2.481-4.86,3.56-6.693,2.456A.666.666,0,0,0,.32,23.864a4.509,4.509,0,0,0,2.349.626,8.1,8.1,0,0,0,6.084-3.409A9.239,9.239,0,0,0,10.58,17.1a5.183,5.183,0,0,0,1.7-1.468h4.467a8.876,8.876,0,0,0-.9,1.085,8.521,8.521,0,0,0-1.446,3.48,11.946,11.946,0,0,0-6.01,4.578A13,13,0,0,0,7,27.326a11,11,0,0,0-6.93,5.69.666.666,0,0,0,1.192.593,9.664,9.664,0,0,1,6.384-5.073.666.666,0,0,0,.472-.415,11.626,11.626,0,0,1,1.367-2.585,10.447,10.447,0,0,1,5.69-4.179.666.666,0,0,0,.493-.574,7.1,7.1,0,0,1,1.273-3.305,6.485,6.485,0,0,1,4.549-2.865.665.665,0,0,0,.555-.406,4.148,4.148,0,0,1,.429-.781A3.681,3.681,0,0,1,24.313,12a1.874,1.874,0,0,1,1.676.167c.959.672.968,2.383.019,3.736a4.2,4.2,0,0,1-.439.527.666.666,0,0,0-.153.683,6.378,6.378,0,0,1-1.041,5.575,7.277,7.277,0,0,1-1.932,1.9.666.666,0,0,0-.278.714,9.949,9.949,0,0,1-1.806,7.855,11.545,11.545,0,0,1-2.193,2.359.665.665,0,0,0-.246.55,9.305,9.305,0,0,1-2.961,7.191,9.61,9.61,0,0,1-2.725,1.818.666.666,0,0,0-.39.7A5.211,5.211,0,0,1,8.2,51.5a.666.666,0,0,0-.435.853,5.21,5.21,0,0,1-3.162,6.6.666.666,0,0,0-.423.777,5.2,5.2,0,0,1-.5,3.669A5,5,0,0,1,.5,65.958a.666.666,0,1,0,.328,1.29,6.3,6.3,0,0,0,4.03-3.214,6.534,6.534,0,0,0,.73-4.046,6.534,6.534,0,0,0,3-2.811,6.564,6.564,0,0,0,.622-4.623,6.546,6.546,0,0,0,4-6.467,10.957,10.957,0,0,0,2.66-1.861A10.655,10.655,0,0,0,19.26,36.34a12.926,12.926,0,0,0,2.189-2.417,11.459,11.459,0,0,0,2.106-8.488,8.673,8.673,0,0,0,1.911-1.981,7.852,7.852,0,0,0,1.328-6.39c.109-.128.211-.261.306-.4a5.4,5.4,0,0,0,.568-1.039h2.518a4.707,4.707,0,0,0,.316,1.094,5.124,5.124,0,0,0-1.918,4.034,5.3,5.3,0,0,0,.383,1.979,7.116,7.116,0,0,0-1.662,4.64,7.442,7.442,0,0,0,.516,2.734,8.9,8.9,0,0,0-3.426,7.21,9.725,9.725,0,0,0,.683,3.595,11.063,11.063,0,0,0-3.288,8.021,11.916,11.916,0,0,0,.352,2.885c-2.849,1.556-4.532,4.042-4.532,6.739a6.557,6.557,0,0,0,.753,3.042,4.527,4.527,0,0,0-2.115,3.577,3.648,3.648,0,0,0,.454,1.74.666.666,0,1,0,1.173-.63,2.334,2.334,0,0,1-.295-1.11c0-1.258,1.1-2.225,2.023-2.815a.666.666,0,0,0,.2-.916,5.356,5.356,0,0,1-.866-2.887c0-2.327,1.6-4.494,4.277-5.8a.666.666,0,0,0,.346-.791,10.523,10.523,0,0,1-.443-3.038A9.612,9.612,0,0,1,26.308,41.6a.666.666,0,0,0,.174-.791,8.309,8.309,0,0,1-.757-3.49A7.448,7.448,0,0,1,29,30.917a.665.665,0,0,0,.247-.864,6.031,6.031,0,0,1-.616-2.677,5.7,5.7,0,0,1,1.591-4.04.666.666,0,0,0,.122-.779,3.928,3.928,0,0,1-.433-1.8A3.739,3.739,0,0,1,31.7,17.516a.666.666,0,0,0,.231-.922,3.411,3.411,0,0,1-.48-1.784c0-1.555.935-2.819,2.084-2.819s2.084,1.265,2.084,2.819a3.37,3.37,0,0,1-.589,1.948.666.666,0,0,0,.153.927A3.769,3.769,0,0,1,36.7,20.757a3.871,3.871,0,0,1-.624,2.126.666.666,0,0,0,.046.79,5.973,5.973,0,0,1-.161,7.589.666.666,0,0,0-.014.887A7.869,7.869,0,0,1,37.79,37.32a7.989,7.989,0,0,1-1.6,4.882.666.666,0,0,0-.009.8,10.354,10.354,0,0,1,.446,11.2.666.666,0,0,0,.057.771,5.6,5.6,0,0,1,1.375,3.586,5.533,5.533,0,0,1-1.168,3.324A.666.666,0,0,0,37,62.8a3.267,3.267,0,0,1,1.406,2.375,2.336,2.336,0,0,1-.295,1.11.666.666,0,1,0,1.173.63,3.648,3.648,0,0,0,.454-1.74,4.175,4.175,0,0,0-1.437-3,6.735,6.735,0,0,0,1.083-3.614A6.82,6.82,0,0,0,38,54.493a11.734,11.734,0,0,0-.463-11.876,9.408,9.408,0,0,0,1.589-5.3,9.289,9.289,0,0,0-1.806-5.6,7.107,7.107,0,0,0,1.422-4.346,7.178,7.178,0,0,0-1.3-4.18,5.223,5.223,0,0,0,.6-2.439,5.148,5.148,0,0,0-1.6-3.76,4.71,4.71,0,0,0,.442-1.355,4.731,4.731,0,0,1,4.4,4.713V66.6a.666.666,0,0,0,1.332,0V20.355A4.731,4.731,0,0,1,47,15.642,4.71,4.71,0,0,0,47.444,17a5.149,5.149,0,0,0-1.6,3.76,5.222,5.222,0,0,0,.6,2.439,7.178,7.178,0,0,0-1.3,4.18,7.106,7.106,0,0,0,1.422,4.346,9.289,9.289,0,0,0-1.806,5.6,9.408,9.408,0,0,0,1.589,5.3,11.734,11.734,0,0,0-.463,11.876,6.82,6.82,0,0,0-1.392,4.068,6.734,6.734,0,0,0,1.083,3.614,4.175,4.175,0,0,0-1.437,3,3.648,3.648,0,0,0,.454,1.74.666.666,0,1,0,1.173-.63,2.334,2.334,0,0,1-.295-1.11A3.267,3.267,0,0,1,46.874,62.8a.666.666,0,0,0,.116-.919,5.53,5.53,0,0,1-1.168-3.324A5.6,5.6,0,0,1,47.2,54.974a.666.666,0,0,0,.057-.771A10.354,10.354,0,0,1,47.7,43a.666.666,0,0,0-.009-.8,7.989,7.989,0,0,1-1.6-4.882,7.869,7.869,0,0,1,1.839-5.171.666.666,0,0,0-.014-.887,5.973,5.973,0,0,1-.161-7.589.666.666,0,0,0,.046-.79,3.871,3.871,0,0,1-.624-2.126A3.769,3.769,0,0,1,48.7,17.685a.666.666,0,0,0,.153-.927,3.37,3.37,0,0,1-.589-1.948c0-1.555.935-2.819,2.084-2.819s2.084,1.265,2.084,2.819a3.411,3.411,0,0,1-.48,1.784.666.666,0,0,0,.231.922,3.739,3.739,0,0,1,1.784,3.241,3.928,3.928,0,0,1-.433,1.8.666.666,0,0,0,.122.779,5.7,5.7,0,0,1,1.59,4.04,6.031,6.031,0,0,1-.616,2.677.666.666,0,0,0,.247.864,7.447,7.447,0,0,1,3.278,6.4,8.309,8.309,0,0,1-.757,3.49.666.666,0,0,0,.174.791,9.612,9.612,0,0,1,3.187,7.335,10.528,10.528,0,0,1-.443,3.038.666.666,0,0,0,.346.791c2.678,1.3,4.277,3.469,4.277,5.8a5.356,5.356,0,0,1-.866,2.887.666.666,0,0,0,.2.916c.923.59,2.023,1.557,2.023,2.815a2.336,2.336,0,0,1-.295,1.11.666.666,0,1,0,1.173.63,3.648,3.648,0,0,0,.454-1.74A4.527,4.527,0,0,0,65.518,61.6a6.555,6.555,0,0,0,.753-3.042c0-2.7-1.683-5.183-4.532-6.739a11.917,11.917,0,0,0,.352-2.885A11.064,11.064,0,0,0,58.8,40.914a9.725,9.725,0,0,0,.683-3.595,8.9,8.9,0,0,0-3.426-7.21,7.445,7.445,0,0,0,.516-2.734,7.116,7.116,0,0,0-1.662-4.64,5.293,5.293,0,0,0,.383-1.979,5.124,5.124,0,0,0-1.918-4.034,4.707,4.707,0,0,0,.316-1.094h2.518a5.409,5.409,0,0,0,.568,1.039c.095.135.2.267.306.4a7.851,7.851,0,0,0,1.328,6.39,8.669,8.669,0,0,0,1.911,1.981,11.46,11.46,0,0,0,2.106,8.488,12.916,12.916,0,0,0,2.189,2.417,10.655,10.655,0,0,0,3.387,7.886,10.962,10.962,0,0,0,2.66,1.861,6.546,6.546,0,0,0,4,6.467,6.541,6.541,0,0,0,3.623,7.434,6.533,6.533,0,0,0,.73,4.047,6.3,6.3,0,0,0,4.03,3.214.666.666,0,0,0,.33-1.29Z" transform="translate(0.003 0)" fill="#3a322b"/>
        <path id="Trazado_1251625" data-name="Trazado 1251625" d="M133.976,351.742a3.279,3.279,0,1,0,3.279,3.279A3.282,3.282,0,0,0,133.976,351.742Zm0,5.226a1.947,1.947,0,1,1,1.947-1.947A1.949,1.949,0,0,1,133.976,356.968Z" transform="translate(-108.943 -293.198)" fill="#3a322b"/>
        <path id="Trazado_1251626" data-name="Trazado 1251626" d="M178.39,288.375a3.279,3.279,0,1,0,3.279,3.279A3.282,3.282,0,0,0,178.39,288.375Zm0,5.226a1.947,1.947,0,1,1,1.947-1.947A1.949,1.949,0,0,1,178.39,293.6Z" transform="translate(-145.965 -240.378)" fill="#3a322b"/>
        <path id="Trazado_1251627" data-name="Trazado 1251627" d="M185.807,212.3a2.667,2.667,0,1,0,2.667,2.667A2.67,2.67,0,0,0,185.807,212.3Zm0,4a1.336,1.336,0,1,1,1.336-1.336A1.337,1.337,0,0,1,185.807,216.307Z" transform="translate(-152.658 -176.968)" fill="#3a322b"/>
        <path id="Trazado_1251628" data-name="Trazado 1251628" d="M187.728,153.645a2.361,2.361,0,1,0-2.361-2.36A2.363,2.363,0,0,0,187.728,153.645Zm0-3.39a1.029,1.029,0,1,1-1.029,1.029A1.03,1.03,0,0,1,187.728,150.256Z" transform="translate(-154.514 -124.137)" fill="#3a322b"/>
        <path id="Trazado_1251629" data-name="Trazado 1251629" d="M120.112,105.35a2.361,2.361,0,1,0-2.361,2.361A2.363,2.363,0,0,0,120.112,105.35Zm-3.389,0a1.029,1.029,0,1,1,1.029,1.029A1.03,1.03,0,0,1,116.723,105.35Z" transform="translate(-96.185 -85.848)" fill="#3a322b"/>
        <path id="Trazado_1251630" data-name="Trazado 1251630" d="M77.344,145.421a2.361,2.361,0,1,0-2.361,2.36A2.363,2.363,0,0,0,77.344,145.421Zm-3.389,0a1.029,1.029,0,1,1,1.029,1.029A1.03,1.03,0,0,1,73.955,145.421Z" transform="translate(-60.535 -119.249)" fill="#3a322b"/>
        <path id="Trazado_1251631" data-name="Trazado 1251631" d="M14.5,95.168a2.361,2.361,0,1,0-2.361,2.36A2.363,2.363,0,0,0,14.5,95.168Zm-3.39,0A1.029,1.029,0,1,1,12.139,96.2,1.03,1.03,0,0,1,11.111,95.168Z" transform="translate(-8.151 -77.36)" fill="#3a322b"/>
        <path id="Trazado_1251632" data-name="Trazado 1251632" d="M67.151,211.775a2.361,2.361,0,1,0,2.361-2.36A2.363,2.363,0,0,0,67.151,211.775Zm2.36-1.029a1.029,1.029,0,1,1-1.029,1.029A1.03,1.03,0,0,1,69.511,210.747Z" transform="translate(-55.974 -174.56)" fill="#3a322b"/>
        <path id="Trazado_1251633" data-name="Trazado 1251633" d="M30.519,270.371a2.361,2.361,0,1,0,2.36-2.361A2.363,2.363,0,0,0,30.519,270.371Zm3.389,0a1.029,1.029,0,1,1-1.029-1.029A1.03,1.03,0,0,1,33.908,270.371Z" transform="translate(-25.439 -223.402)" fill="#3a322b"/>
        <path id="Trazado_1251634" data-name="Trazado 1251634" d="M24.331,190.387a2.858,2.858,0,1,0,2.858,2.858A2.862,2.862,0,0,0,24.331,190.387Zm0,4.385a1.527,1.527,0,1,1,1.527-1.527A1.528,1.528,0,0,1,24.331,194.772Z" transform="translate(-17.898 -158.699)" fill="#3a322b"/>
        <path id="Trazado_1251635" data-name="Trazado 1251635" d="M2,311.024a2.858,2.858,0,1,0,2.858-2.858A2.862,2.862,0,0,0,2,311.024Zm4.385,0A1.527,1.527,0,1,1,4.86,309.5,1.528,1.528,0,0,1,6.387,311.024Z" transform="translate(-1.668 -256.875)" fill="#3a322b"/>
      </g>
    </g>
  </g>
</svg>
