<svg xmlns="http://www.w3.org/2000/svg" xmlns:xlink="http://www.w3.org/1999/xlink" width="115" height="115" viewBox="0 0 115 115">
  <defs>
    <clipPath id="clip-path">
      <rect id="Rectángulo_411064" data-name="Rectángulo 411064" width="115" height="115" transform="translate(800.781 1954)" fill="#e8bad8" opacity="0.41"/>
    </clipPath>
    <clipPath id="clip-path-2">
      <path id="path375" d="M0-682.665H91.719v91.719H0Z" transform="translate(0 682.665)"/>
    </clipPath>
  </defs>
  <g id="Grupo_1206761" data-name="Grupo 1206761" transform="translate(-799.05 -3256.132)">
    <g id="Enmascarar_grupo_1099380" data-name="Enmascarar grupo 1099380" transform="translate(-1.73 1302.132)" clip-path="url(#clip-path)">
      <g id="Grupo_1203945" data-name="Grupo 1203945" transform="translate(799.781 1960.273)">
        <g id="Grupo_1203944" data-name="Grupo 1203944">
          <ellipse id="Elipse_12737" data-name="Elipse 12737" cx="28.658" cy="28.658" rx="28.658" ry="28.658" transform="translate(56.527 44.289)" fill="#7fe5cf"/>
          <ellipse id="Elipse_12738" data-name="Elipse 12738" cx="20.842" cy="20.842" rx="20.842" ry="20.842" fill="#7fe5cf"/>
        </g>
      </g>
    </g>
    <g id="g369" transform="translate(810 3951.192)">
      <g id="g371" transform="translate(0 -682.665)">
        <g id="g373" clip-path="url(#clip-path-2)">
          <g id="g379" transform="translate(48.69 51.96)">
            <path id="path381" d="M0-22.957A3.563,3.563,0,0,1,3.563-26.52a3.563,3.563,0,0,1,3.563,3.563,3.563,3.563,0,0,1-3.563,3.563A3.563,3.563,0,0,1,0-22.957" transform="translate(0 26.52)" fill="#a44f3e"/>
          </g>
          <g id="g383" transform="translate(47.346 50.617)">
            <path id="path385" d="M-5.093-36.52A4.912,4.912,0,0,1-.187-31.613a4.912,4.912,0,0,1-4.906,4.907A4.912,4.912,0,0,1-10-31.613,4.912,4.912,0,0,1-5.093-36.52Zm0,7.126a2.222,2.222,0,0,0,2.219-2.22,2.222,2.222,0,0,0-2.219-2.22,2.222,2.222,0,0,0-2.22,2.22A2.222,2.222,0,0,0-5.093-29.394Z" transform="translate(10 36.52)"/>
          </g>
          <g id="g387" transform="translate(35.903 51.96)">
            <path id="path389" d="M0-22.957A3.563,3.563,0,0,1,3.563-26.52a3.563,3.563,0,0,1,3.563,3.563,3.563,3.563,0,0,1-3.563,3.563A3.563,3.563,0,0,1,0-22.957" transform="translate(0 26.52)" fill="#883f2e"/>
          </g>
          <g id="g391" transform="translate(34.56 50.617)">
            <path id="path393" d="M-5.093-36.52A4.912,4.912,0,0,1-.187-31.613a4.912,4.912,0,0,1-4.906,4.907A4.912,4.912,0,0,1-10-31.613,4.912,4.912,0,0,1-5.093-36.52Zm0,7.126a2.222,2.222,0,0,0,2.219-2.22,2.222,2.222,0,0,0-2.219-2.22,2.222,2.222,0,0,0-2.22,2.22A2.222,2.222,0,0,0-5.093-29.394Z" transform="translate(10 36.52)"/>
          </g>
          <g id="g395" transform="translate(40.244 51.652)">
            <path id="path397" d="M-54.356,0a3.554,3.554,0,0,1-2.821,1.392A3.554,3.554,0,0,1-60,0a3.557,3.557,0,0,1-2.165,1.329l-.63,4.372.567-.521L-59.7,7.5l2.524-2.317L-54.651,7.5l2.524-2.317.567.521-.631-4.374A3.557,3.557,0,0,1-54.356,0" transform="translate(62.792)" fill="#ffbd86"/>
          </g>
          <g id="g399" transform="translate(39.083 56.833)">
            <path id="path401" d="M0-55.234,1.728-56.82,4.252-54.5l2.524-2.317L9.3-54.5l2.524-2.317,1.728,1.586-1.16-8.052-.567-.521L9.3-61.488,6.776-63.806,4.252-61.489,1.728-63.807l-.567.521Z" transform="translate(0 63.807)" fill="#f6a96c"/>
          </g>
          <g id="g403" transform="translate(37.292 63.819)">
            <path id="path405" d="M-110.135-88.454l-1.75-12.141-1.728-1.586-2.524,2.317-2.525-2.318-2.524,2.317-2.525-2.318-1.727,1.586-1.792,12.431Z" transform="translate(127.229 102.182)" fill="#ffbd86"/>
          </g>
          <g id="g407" transform="translate(37.119 70.282)">
            <path id="path409" d="M0-56.41l1.168,1.073,2.524-2.317,2.525,2.318,2.524-2.317,2.525,2.318,2.524-2.317,2.525,2.318,1.168-1.072-.946-6.567-2.385-2.189L11.44-62.675l-2.712-2.49L6.017-62.676,3.3-65.165.95-63Z" transform="translate(0 65.165)" fill="#f6a96c"/>
          </g>
          <g id="g411" transform="translate(36.038 77.793)">
            <path id="path413" d="M-5.629-62.352h17.9a.873.873,0,0,0,.865-1l-1.071-7.432L10.893-69.71,8.368-72.028,5.844-69.711,3.319-72.028.8-69.711l-2.525-2.318-2.524,2.317-1.168-1.073L-6.493-63.35a.874.874,0,0,0,.865,1" transform="translate(6.502 72.029)" fill="#ffbd86"/>
          </g>
          <g id="g415" transform="translate(38.069 63.819)">
            <path id="path417" d="M-93.854-10.228l-1.728-1.586L-98.106-9.5l-2.525-2.318L-103.155-9.5l-2.525-2.318-1.728,1.586-1.014,7.039,2.355-2.162,2.712,2.489,2.711-2.489,2.712,2.49,2.711-2.489,2.385,2.189Z" transform="translate(108.421 11.816)" fill="#ffbd86"/>
          </g>
          <g id="g419" transform="translate(37.74 62.476)">
            <path id="path421" d="M.644-16.8a1.34,1.34,0,0,1-.909-.354L-1.88-18.636-3.5-17.153a1.344,1.344,0,0,1-1.817,0l-1.616-1.484-.819.752a1.344,1.344,0,0,1-1.9-.081,1.344,1.344,0,0,1,.081-1.9l1.728-1.586a1.344,1.344,0,0,1,1.817,0L-4.4-19.967l1.615-1.483a1.344,1.344,0,0,1,1.817,0L.644-19.966,2.26-21.449a1.344,1.344,0,0,1,1.817,0L5.8-19.863a1.344,1.344,0,0,1,.081,1.9,1.344,1.344,0,0,1-1.9.081l-.819-.752L1.553-17.152A1.34,1.34,0,0,1,.644-16.8Z" transform="translate(10 21.804)"/>
          </g>
          <g id="g423" transform="translate(38.9 55.489)">
            <path id="path425" d="M-84.113-8.881a1.34,1.34,0,0,1-.909-.354l-1.616-1.484-1.615,1.483a1.344,1.344,0,0,1-1.817,0l-1.679-1.541a1.344,1.344,0,0,1-1.494-.337,1.344,1.344,0,0,1,.081-1.9l.567-.521a1.344,1.344,0,0,1,1.817,0l1.616,1.484,1.615-1.483a1.344,1.344,0,0,1,1.817,0l1.616,1.484,1.615-1.483a1.344,1.344,0,0,1,1.817,0l.567.521a1.344,1.344,0,0,1,.081,1.9,1.344,1.344,0,0,1-1.494.337L-83.2-9.235A1.34,1.34,0,0,1-84.113-8.881Z" transform="translate(93.597 13.887)"/>
          </g>
          <g id="g427" transform="translate(34.695 22.294)">
            <path id="path429" d="M-112.321-418.589h-2.32a1.344,1.344,0,0,1-1.344-1.344,1.344,1.344,0,0,1,1.344-1.344h1.777l-8.405-58.319-8.405,58.319h8.763a1.344,1.344,0,0,1,1.344,1.344,1.344,1.344,0,0,1-1.344,1.344h-9.306a2.215,2.215,0,0,1-1.676-.766,2.216,2.216,0,0,1-.518-1.768l8.948-62.086a2.2,2.2,0,0,1,2.194-1.9,2.2,2.2,0,0,1,2.194,1.9l8.948,62.086a2.215,2.215,0,0,1-.518,1.768A2.215,2.215,0,0,1-112.321-418.589Z" transform="translate(132.433 485.109)"/>
          </g>
          <g id="g431" transform="translate(41.136 1.344)">
            <path id="path433" d="M-48.272-2.262a.35.35,0,0,0-.631-.209A37.114,37.114,0,0,0-55.764,19.5,37.114,37.114,0,0,0-48.9,41.481a.35.35,0,0,0,.631-.209Z" transform="translate(55.764 2.613)" fill="#017b4e"/>
          </g>
          <g id="g435" transform="translate(39.793 0)">
            <path id="path437" d="M-57.283-12.613h0a1.7,1.7,0,0,1,1.7,1.695V32.615a1.7,1.7,0,0,1-1.7,1.695,1.672,1.672,0,0,1-1.357-.688,38.514,38.514,0,0,1-7.124-22.774A38.513,38.513,0,0,1-58.64-11.926,1.672,1.672,0,0,1-57.283-12.613ZM-58.272,29.3V-7.6a36.668,36.668,0,0,0-4.805,18.452A36.669,36.669,0,0,0-58.272,29.3Z" transform="translate(65.764 12.613)"/>
          </g>
          <g id="g439" transform="translate(44.393 3.865)">
            <path id="path441" d="M-91.8-2.853a.35.35,0,0,0-.555-.366,37.114,37.114,0,0,0-12.315,19.452,37.113,37.113,0,0,0,.94,23,.35.35,0,0,0,.664-.039Z" transform="translate(106.042 3.295)" fill="#09a76d"/>
          </g>
          <g id="g443" transform="translate(43.052 2.522)">
            <path id="path445" d="M-100.779-13.3h0a1.711,1.711,0,0,1,1.348.667,1.678,1.678,0,0,1,.29,1.467l-11.268,42.051a1.7,1.7,0,0,1-1.638,1.255,1.681,1.681,0,0,1-1.574-1.074,38.513,38.513,0,0,1-.987-23.842,38.514,38.514,0,0,1,12.775-20.154A1.7,1.7,0,0,1-100.779-13.3Zm-11.367,40.288,9.552-35.648a36.667,36.667,0,0,0-9.417,16.58A36.669,36.669,0,0,0-112.146,26.992Z" transform="translate(116.028 13.295)"/>
          </g>
          <g id="g447" transform="translate(33.065 3.865)">
            <path id="path449" d="M-.082-2.853a.35.35,0,0,1,.555-.366A37.114,37.114,0,0,1,12.789,16.233a37.113,37.113,0,0,1-.94,23,.35.35,0,0,1-.664-.039Z" transform="translate(0.095 3.295)" fill="#09a76d"/>
          </g>
          <g id="g451" transform="translate(31.721 2.522)">
            <path id="path453" d="M-8.4-13.3a1.7,1.7,0,0,1,1.052.37A38.514,38.514,0,0,1,5.427,7.229a38.512,38.512,0,0,1-.987,23.842,1.694,1.694,0,0,1-3.212-.182l-11.267-42.05a1.679,1.679,0,0,1,.29-1.467A1.711,1.711,0,0,1-8.4-13.3ZM2.966,26.992A36.669,36.669,0,0,0,2.832,7.925,36.67,36.67,0,0,0-6.585-8.655Z" transform="translate(10.098 13.295)"/>
          </g>
          <g id="g455" transform="translate(45.859 11.052)">
            <path id="path457" d="M-145.72-3.4a.35.35,0,0,0-.442-.5,37.113,37.113,0,0,0-16.93,15.6,37.114,37.114,0,0,0-5.046,22.463.35.35,0,0,0,.651.134Z" transform="translate(168.337 3.922)" fill="#017b4e"/>
          </g>
          <g id="g459" transform="translate(44.516 9.709)">
            <path id="path461" d="M-154.678-13.922h0a1.7,1.7,0,0,1,1.465.851,1.675,1.675,0,0,1,0,1.691l-21.767,37.7a1.674,1.674,0,0,1-1.464.847,1.692,1.692,0,0,1-1.685-1.5,38.514,38.514,0,0,1,5.218-23.284,38.512,38.512,0,0,1,17.556-16.161A1.687,1.687,0,0,1-154.678-13.922Zm-20.973,36.03L-157.2-9.853A36.668,36.668,0,0,0-170.587,3.725,36.668,36.668,0,0,0-175.651,22.108Z" transform="translate(178.339 13.922)"/>
          </g>
          <g id="g463" transform="translate(23.194 11.052)">
            <path id="path465" d="M-.311-3.4a.35.35,0,0,1,.442-.5,37.113,37.113,0,0,1,16.93,15.6,37.114,37.114,0,0,1,5.046,22.463.35.35,0,0,1-.651.134Z" transform="translate(0.359 3.922)" fill="#017b4e"/>
          </g>
          <g id="g467" transform="translate(21.849 9.709)">
            <path id="path469" d="M-8.678-13.922A1.687,1.687,0,0,1-8-13.779,38.512,38.512,0,0,1,9.557,2.381a38.514,38.514,0,0,1,5.218,23.285,1.692,1.692,0,0,1-1.685,1.5,1.674,1.674,0,0,1-1.465-.847l-21.767-37.7a1.675,1.675,0,0,1,0-1.692A1.7,1.7,0,0,1-8.678-13.922ZM12.3,22.107A36.667,36.667,0,0,0,7.23,3.725,36.668,36.668,0,0,0-6.157-9.853Z" transform="translate(10.372 13.922)"/>
          </g>
          <g id="g471" transform="translate(45.993 19.043)">
            <path id="path473" d="M-202.192-3.855a.35.35,0,0,0-.3-.594A37.114,37.114,0,0,0-222.882,6.239a37.114,37.114,0,0,0-10.688,20.391.35.35,0,0,0,.594.3Z" transform="translate(233.574 4.453)" fill="#09a76d"/>
          </g>
          <g id="g475" transform="translate(44.65 17.699)">
            <path id="path477" d="M-211.089-14.453a1.685,1.685,0,0,1,1.559,1.047,1.688,1.688,0,0,1-.368,1.845l-30.783,30.783a1.68,1.68,0,0,1-1.194.5,1.7,1.7,0,0,1-1.291-.592,1.686,1.686,0,0,1-.387-1.353A38.514,38.514,0,0,1-232.487-3.367a38.514,38.514,0,0,1,21.141-11.066l.1-.015Zm-29.148,29.432,26.1-26.1a36.668,36.668,0,0,0-16.446,9.65A36.669,36.669,0,0,0-240.237,14.978Z" transform="translate(243.572 14.453)"/>
          </g>
          <g id="g479" transform="translate(14.241 19.043)">
            <path id="path481" d="M-.667-3.855a.35.35,0,0,1,.3-.594A37.114,37.114,0,0,1,20.022,6.239,37.114,37.114,0,0,1,30.71,26.631a.35.35,0,0,1-.594.3Z" transform="translate(0.77 4.453)" fill="#09a76d"/>
          </g>
          <g id="g483" transform="translate(12.898 17.699)">
            <path id="path485" d="M-50.478-52.469a1.69,1.69,0,0,1-1.2-.5L-72.76-74.05a1.344,1.344,0,0,1,0-1.9,1.344,1.344,0,0,1,1.9,0l18.741,18.741a36.671,36.671,0,0,0-9.65-16.446,36.671,36.671,0,0,0-16.446-9.65l2.922,2.922a1.344,1.344,0,0,1,0,1.9,1.344,1.344,0,0,1-1.9,0l-5.265-5.265a1.691,1.691,0,0,1-.314-1.962,1.689,1.689,0,0,1,1.762-.911A38.516,38.516,0,0,1-59.869-75.555,38.514,38.514,0,0,1-48.8-54.415a1.689,1.689,0,0,1-.911,1.763A1.7,1.7,0,0,1-50.478-52.469Z" transform="translate(82.955 86.641)"/>
          </g>
          <g id="g487" transform="translate(44.029 32.949)">
            <path id="path489" d="M-273.786-19.2a.35.35,0,0,0,.039-.664,37.113,37.113,0,0,0-23-.94A37.114,37.114,0,0,0-316.2-8.486a.35.35,0,0,0,.365.555Z" transform="translate(316.279 22.178)" fill="#017b4e"/>
          </g>
          <g id="g491" transform="translate(42.684 31.606)">
            <path id="path493" d="M-295.106-32.178h0A35.965,35.965,0,0,1-281.92-29.77a1.688,1.688,0,0,1,1.071,1.67,1.691,1.691,0,0,1-1.253,1.542l-42.222,11.313-.271.013a1.7,1.7,0,0,1-1.524-.962,1.677,1.677,0,0,1,.2-1.787,38.514,38.514,0,0,1,20.154-12.775A41.2,41.2,0,0,1-295.106-32.178Zm9.111,3.882a34.259,34.259,0,0,0-9.11-1.2h0a38.507,38.507,0,0,0-9.96,1.331,36.669,36.669,0,0,0-16.58,9.417Z" transform="translate(326.287 32.178)"/>
          </g>
          <g id="g495" transform="translate(4.937 32.949)">
            <path id="path497" d="M-1.672-19.2a.35.35,0,0,1-.039-.664,37.113,37.113,0,0,1,23-.94A37.114,37.114,0,0,1,40.744-8.486a.35.35,0,0,1-.365.555Z" transform="translate(1.932 22.178)" fill="#017b4e"/>
          </g>
          <g id="g499" transform="translate(3.594 31.606)">
            <path id="path501" d="M2.327-32.178a41.2,41.2,0,0,1,10.657,1.422A38.514,38.514,0,0,1,33.138-17.981a1.677,1.677,0,0,1,.2,1.787,1.7,1.7,0,0,1-1.524.962H31.64l-.265-.058L-10.676-26.557A1.691,1.691,0,0,1-11.929-28.1a1.688,1.688,0,0,1,1.071-1.67A35.962,35.962,0,0,1,2.327-32.178ZM28.868-18.743a36.67,36.67,0,0,0-16.58-9.417,38.515,38.515,0,0,0-9.961-1.331,34.254,34.254,0,0,0-9.11,1.2Z" transform="translate(11.932 32.178)"/>
          </g>
          <g id="g503" transform="translate(42.992 41.27)">
            <path id="path505" d="M-282.753-48.272a.35.35,0,0,0,.209-.631,37.114,37.114,0,0,0-21.977-6.861A37.114,37.114,0,0,0-326.5-48.9a.35.35,0,0,0,.209.631Z" transform="translate(326.638 55.764)" fill="#09a76d"/>
          </g>
          <g id="g507" transform="translate(41.648 39.927)">
            <path id="path509" d="M-182.114-55.585H-196.8a1.344,1.344,0,0,1-1.344-1.344,1.344,1.344,0,0,1,1.344-1.344h11.37a36.67,36.67,0,0,0-18.453-4.805,36.668,36.668,0,0,0-18.452,4.805h19.266a1.344,1.344,0,0,1,1.344,1.344,1.344,1.344,0,0,1-1.344,1.344h-22.58a1.691,1.691,0,0,1-1.609-1.165,1.688,1.688,0,0,1,.6-1.89,38.513,38.513,0,0,1,22.774-7.124,38.514,38.514,0,0,1,22.774,7.124,1.689,1.689,0,0,1,.6,1.89A1.691,1.691,0,0,1-182.114-55.585Z" transform="translate(227.342 65.764)"/>
          </g>
          <g id="g511" transform="translate(4.491 41.27)">
            <path id="path513" d="M-2.262-48.272a.35.35,0,0,1-.209-.631A37.114,37.114,0,0,1,19.5-55.764,37.114,37.114,0,0,1,41.481-48.9a.35.35,0,0,1-.209.631Z" transform="translate(2.613 55.764)" fill="#09a76d"/>
          </g>
          <g id="g515" transform="translate(3.147 39.927)">
            <path id="path517" d="M32.616-55.585H-10.918a1.691,1.691,0,0,1-1.609-1.165,1.688,1.688,0,0,1,.6-1.89,38.514,38.514,0,0,1,22.774-7.124A38.513,38.513,0,0,1,33.623-58.64a1.688,1.688,0,0,1,.6,1.89A1.691,1.691,0,0,1,32.616-55.585ZM-7.6-58.272H29.3a36.668,36.668,0,0,0-18.452-4.805A36.669,36.669,0,0,0-7.6-58.272Z" transform="translate(12.612 65.764)"/>
          </g>
          <g id="g519" transform="translate(45.117 40.921)">
            <path id="path521" d="M0-22.956a3.563,3.563,0,0,1,3.563-3.563,3.563,3.563,0,0,1,3.563,3.563,3.563,3.563,0,0,1-3.563,3.563A3.563,3.563,0,0,1,0-22.956" transform="translate(0 26.519)" fill="#a44f3e"/>
          </g>
          <g id="g523" transform="translate(43.774 39.577)">
            <path id="path525" d="M-5.093-36.519A4.912,4.912,0,0,1-.187-31.612a4.912,4.912,0,0,1-4.906,4.907A4.912,4.912,0,0,1-10-31.612,4.912,4.912,0,0,1-5.093-36.519Zm0,7.126a2.222,2.222,0,0,0,2.219-2.22,2.222,2.222,0,0,0-2.219-2.219,2.222,2.222,0,0,0-2.22,2.219A2.222,2.222,0,0,0-5.093-29.393Z" transform="translate(10 36.519)"/>
          </g>
          <g id="g527" transform="translate(39.476 40.921)">
            <path id="path529" d="M0-22.956a3.563,3.563,0,0,1,3.563-3.563,3.563,3.563,0,0,1,3.563,3.563,3.563,3.563,0,0,1-3.563,3.563A3.563,3.563,0,0,1,0-22.956" transform="translate(0 26.519)" fill="#c96e58"/>
          </g>
          <g id="g531" transform="translate(38.132 39.577)">
            <path id="path533" d="M-5.094-36.519A4.912,4.912,0,0,1-.187-31.612a4.912,4.912,0,0,1-4.907,4.907A4.912,4.912,0,0,1-10-31.612,4.912,4.912,0,0,1-5.094-36.519Zm0,7.126a2.222,2.222,0,0,0,2.22-2.22,2.222,2.222,0,0,0-2.22-2.219,2.222,2.222,0,0,0-2.219,2.219A2.222,2.222,0,0,0-5.094-29.393Z" transform="translate(10 36.519)"/>
          </g>
          <g id="g535" transform="translate(47.938 45.918)">
            <path id="path537" d="M0-22.957A3.563,3.563,0,0,1,3.563-26.52a3.563,3.563,0,0,1,3.563,3.563,3.563,3.563,0,0,1-3.563,3.563A3.563,3.563,0,0,1,0-22.957" transform="translate(0 26.52)" fill="#c96e58"/>
          </g>
          <g id="g539" transform="translate(46.594 44.574)">
            <path id="path541" d="M-5.093-36.52A4.912,4.912,0,0,1-.187-31.613a4.912,4.912,0,0,1-4.906,4.907A4.912,4.912,0,0,1-10-31.613,4.912,4.912,0,0,1-5.093-36.52Zm0,7.126a2.222,2.222,0,0,0,2.219-2.22,2.222,2.222,0,0,0-2.219-2.22,2.222,2.222,0,0,0-2.22,2.22A2.222,2.222,0,0,0-5.093-29.394Z" transform="translate(10 36.52)"/>
          </g>
          <g id="g543" transform="translate(42.296 45.918)">
            <path id="path545" d="M0-22.957A3.563,3.563,0,0,1,3.563-26.52a3.563,3.563,0,0,1,3.563,3.563,3.563,3.563,0,0,1-3.563,3.563A3.563,3.563,0,0,1,0-22.957" transform="translate(0 26.52)" fill="#883f2e"/>
          </g>
          <g id="g547" transform="translate(40.953 44.574)">
            <path id="path549" d="M-5.093-36.52A4.912,4.912,0,0,1-.187-31.613a4.912,4.912,0,0,1-4.906,4.907A4.912,4.912,0,0,1-10-31.613,4.912,4.912,0,0,1-5.093-36.52Zm0,7.126a2.222,2.222,0,0,0,2.219-2.22,2.222,2.222,0,0,0-2.219-2.22,2.222,2.222,0,0,0-2.22,2.22A2.222,2.222,0,0,0-5.093-29.394Z" transform="translate(10 36.52)"/>
          </g>
          <g id="g551" transform="translate(36.655 45.918)">
            <path id="path553" d="M0-22.957A3.563,3.563,0,0,1,3.563-26.52a3.563,3.563,0,0,1,3.563,3.563,3.563,3.563,0,0,1-3.563,3.563A3.563,3.563,0,0,1,0-22.957" transform="translate(0 26.52)" fill="#a44f3e"/>
          </g>
          <g id="g555" transform="translate(35.311 44.574)">
            <path id="path557" d="M-5.093-36.52A4.912,4.912,0,0,1-.187-31.613a4.912,4.912,0,0,1-4.906,4.907A4.912,4.912,0,0,1-10-31.613,4.912,4.912,0,0,1-5.093-36.52Zm0,7.126a2.222,2.222,0,0,0,2.219-2.22,2.222,2.222,0,0,0-2.219-2.22,2.222,2.222,0,0,0-2.22,2.22A2.222,2.222,0,0,0-5.093-29.394Z" transform="translate(10 36.52)"/>
          </g>
          <g id="g559" transform="translate(36.725 68.939)">
            <path id="path561" d="M-114.168-21.128a1.34,1.34,0,0,1-.909-.354l-1.8-1.655-1.8,1.655a1.344,1.344,0,0,1-1.817,0l-1.8-1.655-1.446,1.327a1.344,1.344,0,0,1-1.9-.081,1.344,1.344,0,0,1,.081-1.9l2.355-2.161a1.344,1.344,0,0,1,1.817,0l1.8,1.655,1.8-1.655a1.344,1.344,0,0,1,1.817,0l1.8,1.655,1.8-1.655a1.344,1.344,0,0,1,1.817,0l2.385,2.189a1.344,1.344,0,0,1,.081,1.9,1.344,1.344,0,0,1-1.9.081l-1.476-1.355-1.8,1.655A1.34,1.34,0,0,1-114.168-21.128Z" transform="translate(126.001 26.305)"/>
          </g>
          <g id="g563" transform="translate(35.775 76.449)">
            <path id="path565" d="M7.658-14.256a1.34,1.34,0,0,1-.909-.354L5.133-16.094,3.518-14.611a1.344,1.344,0,0,1-1.817,0L.084-16.095l-1.615,1.483a1.344,1.344,0,0,1-1.817,0L-4.964-16.1-6.58-14.612a1.344,1.344,0,0,1-1.817,0l-1.168-1.072a1.344,1.344,0,0,1-.081-1.9,1.344,1.344,0,0,1,1.9-.081l.26.238,1.615-1.483a1.344,1.344,0,0,1,1.817,0l1.616,1.484,1.615-1.483a1.344,1.344,0,0,1,1.817,0l1.616,1.484,1.615-1.483a1.344,1.344,0,0,1,1.817,0l1.616,1.484.259-.238a1.344,1.344,0,0,1,1.9.081,1.344,1.344,0,0,1-.081,1.9L8.566-14.61A1.34,1.34,0,0,1,7.658-14.256Z" transform="translate(10 19.263)"/>
          </g>
          <g id="g567" transform="translate(35.775 76.449)">
            <path id="path569" d="M-122.461-14.275a1.34,1.34,0,0,1-.909-.354l-1.616-1.484L-126.6-14.63a1.344,1.344,0,0,1-1.817,0l-1.616-1.484-1.615,1.483a1.344,1.344,0,0,1-1.817,0l-1.616-1.484-1.615,1.483a1.344,1.344,0,0,1-1.817,0l-1.168-1.072a1.344,1.344,0,0,1-.081-1.9,1.344,1.344,0,0,1,1.9-.081l.26.238,1.615-1.483a1.344,1.344,0,0,1,1.817,0l1.616,1.484,1.615-1.483a1.344,1.344,0,0,1,1.817,0l1.616,1.484,1.615-1.483a1.344,1.344,0,0,1,1.817,0l1.616,1.484.259-.238a1.344,1.344,0,0,1,1.9.081,1.344,1.344,0,0,1-.081,1.9l-1.168,1.072A1.34,1.34,0,0,1-122.461-14.275Z" transform="translate(140.118 19.281)"/>
          </g>
          <g id="g571" transform="translate(21.594 60.263)">
            <path id="path573" d="M-61.156-1.677l-8.15,14.14a9.927,9.927,0,0,0,8.6,14.885,9.927,9.927,0,0,0,8.6-14.885l-8.15-14.14a.52.52,0,0,0-.9,0" transform="translate(70.648 1.937)" fill="#fac600"/>
          </g>
          <g id="g575" transform="translate(21.594 60.263)">
            <path id="path577" d="M-44.948-92.781l5.783-10.034-2.367-4.106a.52.52,0,0,0-.9,0l-8.15,14.14a9.928,9.928,0,0,0,8.6,14.885,10.058,10.058,0,0,0,2.817-.4,9.939,9.939,0,0,1-5.783-14.488" transform="translate(51.924 107.181)" fill="#e8b801"/>
          </g>
          <g id="g579" transform="translate(20.247 58.92)">
            <path id="path581" d="M-69.382-11.937A1.869,1.869,0,0,1-67.767-11l8.151,14.14A11.157,11.157,0,0,1-59.623,14.4a11.157,11.157,0,0,1-9.759,5.632A11.157,11.157,0,0,1-79.141,14.4a11.157,11.157,0,0,1-.006-11.267L-71-11A1.869,1.869,0,0,1-69.382-11.937Zm0,29.285a8.5,8.5,0,0,0,7.432-4.289,8.5,8.5,0,0,0,0-8.581l-7.437-12.9-7.437,12.9a8.5,8.5,0,0,0,0,8.581A8.5,8.5,0,0,0-69.382,17.348Z" transform="translate(80.671 11.937)"/>
          </g>
          <g id="g583" transform="translate(9.527 54.025)">
            <path id="path585" d="M-33.6-1.677l-4.45,7.72a5.656,5.656,0,0,0,4.9,8.481,5.656,5.656,0,0,0,4.9-8.481l-4.45-7.72a.52.52,0,0,0-.9,0" transform="translate(38.81 1.937)" fill="#fac600"/>
          </g>
          <g id="g587" transform="translate(9.527 54.025)">
            <path id="path589" d="M-28.951-55.488l3.218-5.583-1.6-2.769a.52.52,0,0,0-.9,0l-4.45,7.72a5.656,5.656,0,0,0,4.9,8.481,5.825,5.825,0,0,0,.966-.083,5.662,5.662,0,0,1-2.137-7.767" transform="translate(33.444 64.101)" fill="#e8b801"/>
          </g>
          <g id="g591" transform="translate(8.181 52.681)">
            <path id="path593" d="M-41.819-11.937A1.869,1.869,0,0,1-40.2-11l4.45,7.721a6.929,6.929,0,0,1,0,7,6.929,6.929,0,0,1-6.061,3.5,6.929,6.929,0,0,1-6.061-3.5,6.929,6.929,0,0,1,0-7l4.45-7.72A1.869,1.869,0,0,1-41.819-11.937Zm0,16.462A4.269,4.269,0,0,0-38.085,2.37a4.269,4.269,0,0,0,0-4.311l-3.737-6.482-3.736,6.482a4.269,4.269,0,0,0,0,4.311A4.269,4.269,0,0,0-41.819,4.525Z" transform="translate(48.83 11.937)"/>
          </g>
          <g id="g595" transform="translate(19.99 79.458)">
            <path id="path597" d="M-32.806-1.859c-.737,3.1-1.7,4.066-4.8,4.8a.378.378,0,0,0,0,.734c3.1.737,4.066,1.7,4.8,4.8a.378.378,0,0,0,.734,0c.737-3.1,1.7-4.066,4.8-4.8a.378.378,0,0,0,0-.734c-3.1-.737-4.066-1.7-4.8-4.8a.378.378,0,0,0-.734,0" transform="translate(37.897 2.148)" fill="#fff5c6"/>
          </g>
          <g id="g599" transform="translate(19.99 83.419)">
            <path id="path601" d="M-20.151,0A7.812,7.812,0,0,1-22.99,1.13a.378.378,0,0,0,0,.734c3.1.737,4.066,1.7,4.8,4.8a.378.378,0,0,0,.734,0A7.844,7.844,0,0,1-16.33,3.84,4.734,4.734,0,0,0-20.151,0" transform="translate(23.278)" fill="#fef0ae"/>
          </g>
          <g id="g603" transform="translate(18.647 78.114)">
            <path id="path605" d="M-41.095-12.148a1.714,1.714,0,0,1,1.674,1.322c.621,2.616,1.191,3.185,3.806,3.806a1.714,1.714,0,0,1,1.322,1.674,1.714,1.714,0,0,1-1.321,1.675C-38.23-3.05-38.8-2.481-39.421.135a1.714,1.714,0,0,1-1.674,1.322A1.714,1.714,0,0,1-42.769.135c-.621-2.616-1.191-3.185-3.806-3.806A1.714,1.714,0,0,1-47.9-5.346,1.714,1.714,0,0,1-46.575-7.02c2.616-.622,3.185-1.191,3.806-3.806A1.714,1.714,0,0,1-41.095-12.148Zm2.2,6.8a5.209,5.209,0,0,1-2.2-2.2,5.209,5.209,0,0,1-2.2,2.2,5.208,5.208,0,0,1,2.2,2.2A5.209,5.209,0,0,1-38.892-5.346Z" transform="translate(47.897 12.148)"/>
          </g>
        </g>
      </g>
    </g>
  </g>
</svg>
